<svg width="12" height="7" viewBox="0 0 12 7" fill="none" xmlns="http://www.w3.org/2000/svg">
<path fill-rule="evenodd" clip-rule="evenodd" d="M9.28795 0.619322L11.8807 3.21193C12.0398 3.37103 12.0398 3.62897 11.8807 3.78807L9.28795 6.38068C9.12885 6.53977 8.87089 6.53977 8.71179 6.38068C8.55268 6.22158 8.55268 5.96364 8.71179 5.80454L10.609 3.90739H1V3.09261H10.609L8.71179 1.19546C8.55268 1.03636 8.55268 0.778417 8.71179 0.619322C8.87089 0.460226 9.12885 0.460226 9.28795 0.619322Z" fill="#0B213E"/>
<path fill-rule="evenodd" clip-rule="evenodd" d="M2.71205 0.619322L0.119327 3.21193C-0.0397758 3.37103 -0.0397758 3.62897 0.119327 3.78807L2.71205 6.38068C2.87115 6.53977 3.12911 6.53977 3.28821 6.38068C3.44732 6.22158 3.44732 5.96364 3.28821 5.80454L1.39098 3.90739H11V3.09261H1.39098L3.28821 1.19546C3.44732 1.03636 3.44732 0.778417 3.28821 0.619322C3.12911 0.460226 2.87115 0.460226 2.71205 0.619322Z" fill="#0B213E"/>
</svg>
