<svg xmlns="http://www.w3.org/2000/svg" viewBox="0 0 422.43 34.4"><defs><style>.cls-1{isolation:isolate;}.cls-2{fill:#0b213e;}.cls-3{fill:#75c4c0;}</style></defs><g id="Calque_2" data-name="Calque 2"><g id="Calque_1-2" data-name="Calque 1"><g class="cls-1"><path class="cls-2" d="M19.09,13.07V10.28h5.76V33.71H19.09V31a9.76,9.76,0,0,1-7.48,3.27,10.87,10.87,0,0,1-8.34-3.52A12.55,12.55,0,0,1,0,21.89a12.05,12.05,0,0,1,3.31-8.73,11,11,0,0,1,8.3-3.49A9.78,9.78,0,0,1,19.09,13.07Zm.09,8.9a6.76,6.76,0,0,0-1.89-4.77,6.16,6.16,0,0,0-4.69-2,6.18,6.18,0,0,0-4.73,2A6.85,6.85,0,0,0,6.06,22a6.8,6.8,0,0,0,1.85,4.82,6.14,6.14,0,0,0,4.69,2,6.16,6.16,0,0,0,4.69-2A6.81,6.81,0,0,0,19.18,22Z"/><path class="cls-2" d="M48.65,31.52q-2.85,2.75-7.89,2.75T32.87,31.5A10.23,10.23,0,0,1,30,23.82V10.28h6.07V23.82a5,5,0,0,0,1.24,3.57,4.49,4.49,0,0,0,3.44,1.33,4.46,4.46,0,0,0,3.44-1.33,5,5,0,0,0,1.25-3.57V10.28h6.06V23.82C51.51,27.12,50.56,29.68,48.65,31.52Z"/><path class="cls-2" d="M71.85,27.56l1.81,4.78a12.26,12.26,0,0,1-6.92,1.93,7.72,7.72,0,0,1-6.11-2.34c-1.38-1.56-2.06-3.87-2.06-6.9V15.35H54.74V10.28h3.87V2h6v8.3h7.74v5.07H64.63v9.29q0,4.13,3.31,4.13A7.9,7.9,0,0,0,71.85,27.56Z"/><path class="cls-2" d="M75,22a11.85,11.85,0,0,1,3.52-8.73,13.1,13.1,0,0,1,18.06,0A11.86,11.86,0,0,1,100.06,22a11.94,11.94,0,0,1-3.53,8.78,13.23,13.23,0,0,1-18.06,0A11.93,11.93,0,0,1,75,22Zm7.91,4.78a6.14,6.14,0,0,0,4.64,1.93,6.22,6.22,0,0,0,4.61-1.93A6.77,6.77,0,0,0,94,22a6.62,6.62,0,0,0-1.89-4.73,6.22,6.22,0,0,0-4.61-1.93,6.14,6.14,0,0,0-4.64,1.93A6.51,6.51,0,0,0,81,22,6.76,6.76,0,0,0,82.86,26.75Z"/><path class="cls-2" d="M110.38,33.71h-6.06V10.28h5.93v3.26a7,7,0,0,1,2.92-2.83,9.6,9.6,0,0,1,10.93,1.46q2.66,2.53,2.66,7.22V33.71H120.7V21a6.29,6.29,0,0,0-1.33-4.28,4.56,4.56,0,0,0-3.62-1.53,5,5,0,0,0-3.89,1.66,6.2,6.2,0,0,0-1.48,4.28Z"/><path class="cls-2" d="M138.85,3.91a3.63,3.63,0,0,1-1.08,2.67,3.85,3.85,0,0,1-5.33,0,3.63,3.63,0,0,1-1.08-2.67,3.47,3.47,0,0,1,1.08-2.62,3.83,3.83,0,0,1,5.33,0A3.47,3.47,0,0,1,138.85,3.91Zm-.73,6.37V33.71h-6.07V10.28Z"/><path class="cls-2" d="M142.29,22a11.85,11.85,0,0,1,3.52-8.73,13.1,13.1,0,0,1,18.06,0A11.86,11.86,0,0,1,167.4,22a11.94,11.94,0,0,1-3.53,8.78,13.23,13.23,0,0,1-18.06,0A11.93,11.93,0,0,1,142.29,22Zm7.91,4.78a6.49,6.49,0,0,0,9.24,0A6.77,6.77,0,0,0,161.33,22a6.62,6.62,0,0,0-1.89-4.73,6.49,6.49,0,0,0-9.24,0A6.47,6.47,0,0,0,148.35,22,6.72,6.72,0,0,0,150.2,26.75Z"/></g><g class="cls-1"><path class="cls-3" d="M174.28,34.4a3.5,3.5,0,0,1-2.54-1,3.36,3.36,0,0,1-1-2.52,3.26,3.26,0,0,1,1-2.45,3.52,3.52,0,0,1,2.54-1,3.37,3.37,0,0,1,2.43,1,3.31,3.31,0,0,1,1,2.45,3.42,3.42,0,0,1-1,2.52A3.35,3.35,0,0,1,174.28,34.4Z"/></g><g class="cls-1"><path class="cls-2" d="M194.79,5.38a4.55,4.55,0,0,0-3.23,1,4,4,0,0,0-1.12,3v.82h7.27v5.07h-7.27V33.71h-6.06V15.35h-3.61V10.28h3.61V9.33c0-3,.88-5.35,2.62-6.92A9.87,9.87,0,0,1,193.88,0a13.78,13.78,0,0,1,6.67,1.72l-2,4.64A9.86,9.86,0,0,0,194.79,5.38Z"/><path class="cls-2" d="M198.92,22a11.85,11.85,0,0,1,3.52-8.73,13.1,13.1,0,0,1,18.06,0A11.86,11.86,0,0,1,224,22a11.94,11.94,0,0,1-3.53,8.78,13.23,13.23,0,0,1-18.06,0A11.93,11.93,0,0,1,198.92,22Zm7.91,4.78a6.49,6.49,0,0,0,9.24,0A6.77,6.77,0,0,0,218,22a6.62,6.62,0,0,0-1.89-4.73,6.49,6.49,0,0,0-9.24,0A6.47,6.47,0,0,0,205,22,6.72,6.72,0,0,0,206.83,26.75Z"/><path class="cls-2" d="M246.62,31.52q-2.85,2.75-7.89,2.75t-7.89-2.77A10.23,10.23,0,0,1,228,23.82V10.28h6.07V23.82a5,5,0,0,0,1.24,3.57,5.11,5.11,0,0,0,6.88,0,5,5,0,0,0,1.25-3.57V10.28h6.06V23.82C249.48,27.12,248.53,29.68,246.62,31.52Z"/><path class="cls-2" d="M260.75,33.71h-6.06V10.28h5.93v3.26a7,7,0,0,1,2.92-2.83,9.6,9.6,0,0,1,10.93,1.46q2.65,2.53,2.66,7.22V33.71h-6.06V21a6.34,6.34,0,0,0-1.33-4.28,4.56,4.56,0,0,0-3.62-1.53,5,5,0,0,0-3.89,1.66,6.16,6.16,0,0,0-1.48,4.28Z"/><path class="cls-2" d="M299.84,13V1h6.06V33.71H300V30.83a9,9,0,0,1-7.26,3.44,10.89,10.89,0,0,1-8.3-3.48A12.47,12.47,0,0,1,281.09,22a12.4,12.4,0,0,1,3.31-8.77,11,11,0,0,1,8.3-3.53A9.18,9.18,0,0,1,299.84,13Zm.3,9a6.7,6.7,0,0,0-1.81-4.77,6.05,6.05,0,0,0-4.69-2,6.2,6.2,0,0,0-4.73,2,6.74,6.74,0,0,0-1.8,4.77,7,7,0,0,0,1.8,4.86,6.27,6.27,0,0,0,4.73,1.94,6.12,6.12,0,0,0,4.69-1.94A6.92,6.92,0,0,0,300.14,22Z"/><path class="cls-2" d="M329.25,13.07V10.28H335V33.71h-5.76V31a9.76,9.76,0,0,1-7.48,3.27,10.88,10.88,0,0,1-8.35-3.52,12.54,12.54,0,0,1-3.26-8.86,12.05,12.05,0,0,1,3.31-8.73,11,11,0,0,1,8.3-3.49A9.79,9.79,0,0,1,329.25,13.07Zm.08,8.9a6.76,6.76,0,0,0-1.89-4.77,6.13,6.13,0,0,0-4.69-2,6.2,6.2,0,0,0-4.73,2,6.84,6.84,0,0,0-1.8,4.77,6.76,6.76,0,0,0,1.85,4.82,6.53,6.53,0,0,0,9.37,0A6.81,6.81,0,0,0,329.33,22Z"/><path class="cls-2" d="M355.61,27.56l1.8,4.78a12.23,12.23,0,0,1-6.92,1.93,7.72,7.72,0,0,1-6.11-2.34c-1.37-1.56-2.06-3.87-2.06-6.9V15.35h-3.83V10.28h3.87V2h6v8.3h7.74v5.07h-7.74v9.29c0,2.75,1.11,4.13,3.31,4.13A7.93,7.93,0,0,0,355.61,27.56Z"/><path class="cls-2" d="M367.17,3.91a3.66,3.66,0,0,1-1.07,2.67,3.62,3.62,0,0,1-2.67,1.07,3.58,3.58,0,0,1-2.66-1.07,3.63,3.63,0,0,1-1.08-2.67,3.47,3.47,0,0,1,1.08-2.62A3.59,3.59,0,0,1,363.43.21a3.63,3.63,0,0,1,2.67,1.08A3.5,3.5,0,0,1,367.17,3.91Zm-.73,6.37V33.71h-6.06V10.28Z"/><path class="cls-2" d="M370.61,22a11.86,11.86,0,0,1,3.53-8.73,13.1,13.1,0,0,1,18.06,0A11.85,11.85,0,0,1,395.72,22a11.93,11.93,0,0,1-3.52,8.78,13.23,13.23,0,0,1-18.06,0A11.94,11.94,0,0,1,370.61,22Zm7.91,4.78a6.51,6.51,0,0,0,9.25,0A6.77,6.77,0,0,0,389.66,22a6.62,6.62,0,0,0-1.89-4.73,6.51,6.51,0,0,0-9.25,0A6.5,6.5,0,0,0,376.68,22,6.75,6.75,0,0,0,378.52,26.75Z"/><path class="cls-2" d="M406,33.71H400V10.28h5.94v3.26a7,7,0,0,1,2.92-2.83,9.59,9.59,0,0,1,10.92,1.46q2.67,2.53,2.67,7.22V33.71h-6.07V21A6.29,6.29,0,0,0,415,16.75a4.54,4.54,0,0,0-3.61-1.53,5,5,0,0,0-3.89,1.66A6.16,6.16,0,0,0,406,21.16Z"/></g></g></g></svg>