<svg width="92" height="92" viewBox="0 0 92 92" fill="none" xmlns="http://www.w3.org/2000/svg">
<g filter="url(#filter0_d)">
<circle cx="46" cy="46" r="40" fill="white"/>
</g>
<path d="M33.1 44.3666V52.65C33.1 55.6833 33.1 55.6833 35.9667 57.6166L43.85 62.1666C45.0333 62.85 46.9667 62.85 48.15 62.1666L56.0333 57.6166C58.9 55.6833 58.9 55.6833 58.9 52.65V44.3666C58.9 41.3333 58.9 41.3333 56.0333 39.4L48.15 34.85C46.9667 34.1666 45.0333 34.1666 43.85 34.85L35.9667 39.4C33.1 41.3333 33.1 41.3333 33.1 44.3666Z" stroke="#0B213E" stroke-width="1.5" stroke-linecap="round" stroke-linejoin="round"/>
<path d="M55.1667 38.7167V34.3334C55.1667 31 53.5 29.3334 50.1667 29.3334H41.8333C38.5 29.3334 36.8333 31 36.8333 34.3334V38.6" stroke="#0B213E" stroke-width="1.5" stroke-linecap="round" stroke-linejoin="round"/>
<path d="M47.05 44.3167L48 45.8C48.15 46.0333 48.4833 46.2667 48.7333 46.3333L50.4333 46.7667C51.4833 47.0333 51.7667 47.9333 51.0833 48.7667L49.9667 50.1167C49.8 50.3333 49.6667 50.7167 49.6833 50.9833L49.7833 52.7333C49.85 53.8167 49.0833 54.3667 48.0833 53.9667L46.45 53.3167C46.2 53.2167 45.7833 53.2167 45.5333 53.3167L43.9 53.9667C42.9 54.3667 42.1333 53.8 42.2 52.7333L42.3 50.9833C42.3167 50.7167 42.1833 50.3167 42.0167 50.1167L40.9 48.7667C40.2167 47.9333 40.5 47.0333 41.55 46.7667L43.25 46.3333C43.5167 46.2667 43.85 46.0167 43.9833 45.8L44.9333 44.3167C45.5333 43.4167 46.4667 43.4167 47.05 44.3167Z" stroke="#0B213E" stroke-width="1.5" stroke-linecap="round" stroke-linejoin="round"/>
<defs>
<filter id="filter0_d" x="0" y="0" width="92" height="92" filterUnits="userSpaceOnUse" color-interpolation-filters="sRGB">
<feFlood flood-opacity="0" result="BackgroundImageFix"/>
<feColorMatrix in="SourceAlpha" type="matrix" values="0 0 0 0 0 0 0 0 0 0 0 0 0 0 0 0 0 0 127 0" result="hardAlpha"/>
<feOffset/>
<feGaussianBlur stdDeviation="3"/>
<feColorMatrix type="matrix" values="0 0 0 0 0 0 0 0 0 0 0 0 0 0 0 0 0 0 0.09 0"/>
<feBlend mode="normal" in2="BackgroundImageFix" result="effect1_dropShadow"/>
<feBlend mode="normal" in="SourceGraphic" in2="effect1_dropShadow" result="shape"/>
</filter>
</defs>
</svg>
