<svg width="92" height="92" viewBox="0 0 92 92" fill="none" xmlns="http://www.w3.org/2000/svg">
<g filter="url(#filter0_d)">
<circle cx="46" cy="46" r="40" fill="white"/>
</g>
<path d="M39.3333 62.6667H52.6667C59.3667 62.6667 60.5667 59.9833 60.9167 56.7167L62.1667 43.3833C62.6167 39.3167 61.45 36 54.3333 36H37.6667C30.55 36 29.3833 39.3167 29.8333 43.3833L31.0833 56.7167C31.4333 59.9833 32.6333 62.6667 39.3333 62.6667Z" stroke="#0B213E" stroke-width="1.5" stroke-miterlimit="10" stroke-linecap="round" stroke-linejoin="round"/>
<path d="M39.3333 36V34.6667C39.3333 31.7167 39.3333 29.3334 44.6667 29.3334H47.3333C52.6667 29.3334 52.6667 31.7167 52.6667 34.6667V36" stroke="#0B213E" stroke-width="1.5" stroke-miterlimit="10" stroke-linecap="round" stroke-linejoin="round"/>
<path d="M49.3333 47.6667V49.3333C49.3333 49.35 49.3333 49.35 49.3333 49.3667C49.3333 51.1833 49.3167 52.6667 46 52.6667C42.7 52.6667 42.6667 51.2 42.6667 49.3833V47.6667C42.6667 46 42.6667 46 44.3333 46H47.6667C49.3333 46 49.3333 46 49.3333 47.6667Z" stroke="#0B213E" stroke-width="1.5" stroke-miterlimit="10" stroke-linecap="round" stroke-linejoin="round"/>
<path d="M62.0833 44.3333C58.2333 47.1333 53.8333 48.8 49.3333 49.3666" stroke="#0B213E" stroke-width="1.5" stroke-miterlimit="10" stroke-linecap="round" stroke-linejoin="round"/>
<path d="M30.3667 44.7833C34.1167 47.35 38.35 48.9 42.6667 49.3833" stroke="#0B213E" stroke-width="1.5" stroke-miterlimit="10" stroke-linecap="round" stroke-linejoin="round"/>
<defs>
<filter id="filter0_d" x="0" y="0" width="92" height="92" filterUnits="userSpaceOnUse" color-interpolation-filters="sRGB">
<feFlood flood-opacity="0" result="BackgroundImageFix"/>
<feColorMatrix in="SourceAlpha" type="matrix" values="0 0 0 0 0 0 0 0 0 0 0 0 0 0 0 0 0 0 127 0" result="hardAlpha"/>
<feOffset/>
<feGaussianBlur stdDeviation="3"/>
<feColorMatrix type="matrix" values="0 0 0 0 0 0 0 0 0 0 0 0 0 0 0 0 0 0 0.09 0"/>
<feBlend mode="normal" in2="BackgroundImageFix" result="effect1_dropShadow"/>
<feBlend mode="normal" in="SourceGraphic" in2="effect1_dropShadow" result="shape"/>
</filter>
</defs>
</svg>
