<svg width="15" height="15" viewBox="0 0 15 15" fill="none" xmlns="http://www.w3.org/2000/svg">
<path d="M9.14582 8.48438H6.47334C6.2497 8.48438 6.06842 8.66566 6.06842 8.8893V14.133C6.06842 14.3567 6.2497 14.538 6.47334 14.538H9.14582C9.36946 14.538 9.55075 14.3567 9.55075 14.133V8.8893C9.55075 8.66566 9.36946 8.48438 9.14582 8.48438ZM8.7409 13.7281H6.87827V9.29422H8.7409V13.7281Z" fill="#66D5BB"/>
<path d="M14.4497 5.30566H11.7569C11.5333 5.30566 11.352 5.48695 11.352 5.71059V14.133C11.352 14.3566 11.5333 14.5379 11.7569 14.5379H14.4497C14.6733 14.5379 14.8546 14.3566 14.8546 14.133V5.71059C14.8546 5.48699 14.6733 5.30566 14.4497 5.30566ZM14.0447 13.7281H12.1618V6.11551H14.0447V13.7281Z" fill="#66D5BB"/>
<path d="M3.86146 10.4482H1.16872C0.945078 10.4482 0.763794 10.6295 0.763794 10.8532V14.133C0.763794 14.3567 0.945078 14.538 1.16872 14.538H3.86146C4.0851 14.538 4.26639 14.3567 4.26639 14.133V10.8532C4.26639 10.6296 4.0851 10.4482 3.86146 10.4482ZM3.45654 13.7281H1.57364V11.2581H3.45654V13.7281Z" fill="#66D5BB"/>
<path d="M14.8955 0.40608C14.8339 0.321213 14.737 0.269052 14.6323 0.264363L10.9475 0.00115695C10.7238 -0.0156228 10.5289 0.152097 10.5121 0.375699C10.4954 0.599338 10.663 0.794224 10.8867 0.811004L13.4946 0.988102L8.70012 4.73879L5.03558 1.86383C4.8791 1.7399 4.65569 1.7485 4.50917 1.88406L0.743411 5.48783C0.583325 5.6397 0.574334 5.89183 0.723182 6.05474C0.795417 6.14848 0.908651 6.20134 1.02688 6.19646C1.13369 6.19495 1.23557 6.15127 1.31032 6.07497L4.81291 2.71409L8.43696 5.56879C8.58487 5.68721 8.79518 5.68721 8.9431 5.56879L14.1262 1.53552L13.9236 4.05039C13.9226 4.27027 14.0895 4.45462 14.3083 4.47554H14.3286C14.5373 4.47659 14.7126 4.31879 14.7335 4.11112L14.9967 0.689515C15.0115 0.584147 14.9737 0.478199 14.8955 0.40608Z" fill="#66D5BB"/>
</svg>
