<svg width="16" height="16" viewBox="0 0 16 16" fill="none" xmlns="http://www.w3.org/2000/svg">
<path d="M7.40301 0C3.66377 0 0.621582 3.03386 0.621582 6.76292C0.621582 10.492 3.6638 13.5258 7.40301 13.5258C11.1422 13.5258 14.1845 10.492 14.1845 6.76292C14.1845 3.03386 11.1422 0 7.40301 0ZM7.40301 12.4141C4.27669 12.4141 1.73329 9.87885 1.73329 6.76289C1.73329 3.64676 4.27669 1.11168 7.40301 1.11168C10.5293 1.11168 13.0727 3.64676 13.0727 6.76289C13.0728 9.87885 10.5294 12.4141 7.40301 12.4141Z" fill="#66D5BB"/>
<path d="M15.8363 14.3917L12.1862 10.7601C11.9685 10.5437 11.6166 10.5446 11.4 10.7621C11.1836 10.9798 11.1845 11.3317 11.402 11.5483L15.0522 15.1799C15.1607 15.2877 15.3023 15.3416 15.4442 15.3416C15.5871 15.3416 15.7297 15.287 15.8383 15.1779C16.0547 14.9601 16.0538 14.6083 15.8363 14.3917Z" fill="#66D5BB"/>
</svg>
