<svg width="356" height="68" viewBox="0 0 356 68" fill="none" xmlns="http://www.w3.org/2000/svg">
<g clip-path="url(#clip0)">
<path d="M41.296 54.7188H37.0833L32.04 50.1146V47.7535L37.2613 42.7951V34.9444L44.0847 30.5174L51.8573 36.3611L41.296 54.7188ZM23.852 42.3229L24.6233 34.9444L22.072 28.3333H37.1427L34.6507 34.9444L35.3627 42.3229H29.548H23.852ZM27.2933 50.1146L22.25 54.7778H17.978L7.35733 36.3611L15.1893 30.5764L22.072 34.9444V42.7951L27.2933 47.7535V50.1146ZM17.9187 14.6979H41.2367L44.0253 26.5035H15.1893L17.9187 14.6979ZM29.6073 0L0 17V51L29.6073 68L59.2147 51V17L29.6073 0Z" fill="#03316C"/>
<path d="M92.4413 49.7604C84.6093 49.7604 78.854 43.6805 78.854 36.184C78.854 28.6875 84.6687 22.4305 92.5007 22.4305C97.4847 22.4305 100.57 24.2604 103.003 26.9167L99.2647 30.9305C97.4253 28.9826 95.4673 27.684 92.4413 27.684C88.0507 27.684 84.8467 31.4618 84.8467 36.066C84.8467 40.7882 88.11 44.566 92.738 44.566C95.586 44.566 97.6627 43.2083 99.5613 41.3194L103.181 44.9201C100.57 47.6944 97.544 49.7604 92.4413 49.7604Z" fill="#002E73"/>
<path d="M114.632 49.7603H108.58V22.4895H114.632V28.8645C116.293 24.9687 119.319 22.2534 123.947 22.4895V28.8645H123.591C118.311 28.8645 114.632 32.2881 114.632 39.2534V49.7603Z" fill="#002E73"/>
<path d="M155.572 22.3715L142.222 57.0798H136.111L139.018 49.7604L127.567 22.3715H134.034L141.807 42.618L149.283 22.3715H155.572Z" fill="#002E73"/>
<path d="M173.372 27.6249C169.278 27.6249 165.718 30.9305 165.718 36.0659C165.718 41.2013 169.337 44.5069 173.372 44.5069C177.525 44.5069 180.907 41.2603 180.907 36.0659C180.907 30.8715 177.466 27.6249 173.372 27.6249ZM174.737 49.7013C170.405 49.7013 167.676 47.5173 165.837 45.0972V57.0798H159.785V22.3715H165.837V27.2708C167.795 24.5555 170.524 22.3715 174.737 22.3715C180.967 22.3715 187.019 27.2708 187.019 36.0069C187.019 44.743 181.026 49.7013 174.737 49.7013Z" fill="#002E73"/>
<path d="M200.25 28.0973V40.9654C200.25 43.2674 201.437 44.2119 203.513 44.2119H205.887V49.5834H201.733C197.343 49.5834 194.198 47.6355 194.198 41.9098V28.0973H190.875V22.9619H194.198V15.7605H200.25V22.9619H205.887V28.0973H200.25Z" fill="#002E73"/>
<path d="M224.933 27.625C220.067 27.625 216.982 31.4028 216.982 36.0069C216.982 40.6701 220.305 44.5069 224.992 44.5069C229.857 44.5069 232.943 40.7292 232.943 36.125C233.061 31.4618 229.679 27.625 224.933 27.625ZM224.933 49.7604C216.923 49.7604 210.989 43.6805 210.989 36.184C210.989 28.6285 216.982 22.4305 225.051 22.4305C233.121 22.4305 239.054 28.5104 239.054 36.066C239.054 43.5035 233.121 49.7604 224.933 49.7604Z" fill="#002E73"/>
<path d="M296.785 27.625C291.92 27.625 288.835 31.4028 288.835 36.0069C288.835 40.6701 292.157 44.5069 296.845 44.5069C301.71 44.5069 304.795 40.7292 304.795 36.125C304.855 31.4618 301.532 27.625 296.785 27.625ZM296.785 49.7604C288.775 49.7604 282.842 43.6805 282.842 36.184C282.842 28.6285 288.835 22.4305 296.904 22.4305C304.973 22.4305 310.907 28.5104 310.907 36.066C310.907 43.5035 304.914 49.7604 296.785 49.7604Z" fill="#002E73"/>
<path d="M346.744 22.3715C352.499 22.3715 356 25.9722 356 32.4062V49.7013H349.948V34.236C349.948 30.0451 347.99 27.861 344.608 27.861C341.345 27.861 338.971 30.1631 338.971 34.3541V49.7604H332.919V34.236C332.919 30.1631 330.902 27.861 327.579 27.861C324.257 27.861 321.943 30.3402 321.943 34.4131V49.7604H315.891V22.4305H321.943V26.9166C323.663 24.6145 325.918 22.4305 329.953 22.4305C333.75 22.4305 336.361 24.2603 337.785 27.0347C339.98 24.2013 342.769 22.3715 346.744 22.3715Z" fill="#002E73"/>
<path d="M250.149 44.2118V47.2812L249.971 47.5763L247.301 49.052H246.945L244.335 47.5763L244.157 47.2812V44.2118L244.335 43.9166L246.945 42.4409H247.301L249.971 43.9166L250.149 44.2118Z" fill="#002E73"/>
<path d="M268.483 49.7013C260.651 49.5242 255.015 43.3263 255.133 35.8297C255.252 28.3332 261.185 22.1943 269.077 22.3714C274.061 22.4895 277.146 24.3784 279.519 27.0936L275.722 31.0485C273.942 29.1006 271.984 27.6839 268.958 27.6249C264.567 27.5659 261.304 31.2256 261.245 35.8888C261.126 40.611 264.33 44.4478 268.958 44.5068C271.806 44.5659 273.942 43.2672 275.841 41.3784L279.401 45.0381C276.731 47.8124 273.645 49.8193 268.483 49.7013Z" fill="#002E73"/>
</g>
<defs>
<clipPath id="clip0">
<rect width="356" height="68" fill="white"/>
</clipPath>
</defs>
</svg>
