<svg width="44" height="39" viewBox="0 0 44 39" fill="none" xmlns="http://www.w3.org/2000/svg">
<path d="M9.07968 37.986C8.70103 37.9854 8.32648 37.9036 7.97889 37.7457C7.63132 37.5877 7.31798 37.3569 7.05807 37.0673L1.06757 30.3756C0.811771 30.0976 0.611015 29.7687 0.477005 29.4084C0.342997 29.0481 0.278355 28.6634 0.286878 28.2765C0.295402 27.8897 0.376977 27.5085 0.526713 27.1551C0.676449 26.8016 0.891436 26.4831 1.15921 26.2177C1.42698 25.9524 1.74217 25.7456 2.08652 25.6095C2.43087 25.4734 2.79745 25.4106 3.16508 25.4246C3.53271 25.4388 3.89409 25.5295 4.22809 25.6918C4.56209 25.8539 4.86212 26.0843 5.11079 26.3694L6.27395 27.6686V16.8959C6.26787 16.5082 6.3352 16.1231 6.47203 15.7631C6.60888 15.403 6.81243 15.0754 7.07093 14.7989C7.32942 14.5225 7.63772 14.303 7.97769 14.1531C8.31767 14.0033 8.68254 13.926 9.05117 13.926C9.41979 13.926 9.78475 14.0033 10.1247 14.1531C10.4647 14.303 10.7729 14.5225 11.0314 14.7989C11.2899 15.0754 11.4935 15.403 11.6304 15.7631C11.7673 16.1231 11.8345 16.5082 11.8284 16.8959V27.7277L12.9909 26.4292C13.2403 26.1488 13.5403 25.9232 13.8732 25.7656C14.2062 25.608 14.5656 25.5216 14.9305 25.5113C15.4797 25.4941 16.0213 25.6486 16.4869 25.9552C16.9525 26.2617 17.3211 26.7066 17.5463 27.2336C17.7716 27.7606 17.8432 28.346 17.7522 28.9157C17.661 29.4856 17.4115 30.0141 17.0349 30.4347L11.0997 37.0632C10.8403 37.3533 10.5273 37.5848 10.18 37.7435C9.83267 37.9021 9.45834 37.9847 9.07968 37.986ZM3.08918 26.9269C2.8209 26.927 2.55844 27.0096 2.33431 27.1647C2.11018 27.3198 1.93417 27.5406 1.82789 27.7996C1.72161 28.0588 1.68973 28.3449 1.73625 28.6228C1.78278 28.9007 1.90572 29.1582 2.08976 29.3635L8.08016 36.056C8.34643 36.3335 8.70623 36.4893 9.08116 36.4893C9.45608 36.4893 9.81579 36.3335 10.0821 36.056L16.0172 29.4266C16.267 29.1474 16.4011 28.7753 16.3903 28.3921C16.3793 28.009 16.2241 27.6461 15.9588 27.3832C15.8275 27.2528 15.6731 27.1511 15.5043 27.0837C15.3356 27.0163 15.1558 26.9845 14.9754 26.9902C14.7949 26.9959 14.6172 27.0389 14.4527 27.1169C14.2881 27.1949 14.1397 27.3062 14.016 27.4445L10.4294 31.4507V16.8959C10.4337 16.7032 10.4013 16.5115 10.3342 16.3322C10.2671 16.1528 10.1665 15.9894 10.0385 15.8516C9.91041 15.7136 9.75739 15.604 9.5885 15.5293C9.41961 15.4544 9.23821 15.4159 9.05496 15.4159C8.8717 15.4159 8.69031 15.4544 8.52141 15.5293C8.35253 15.604 8.19961 15.7136 8.07156 15.8516C7.9435 15.9894 7.84294 16.1528 7.77581 16.3322C7.70868 16.5115 7.67626 16.7032 7.68056 16.8959V31.3854L4.09387 27.3775C3.9647 27.2342 3.80901 27.1203 3.63633 27.0429C3.46364 26.9653 3.27766 26.9259 3.08991 26.9269H3.08918Z" fill="#0B213E" stroke="#0B213E" stroke-width="0.3"/>
<path d="M34.4378 37.9863C34.059 37.9855 33.6846 37.9037 33.3369 37.7458C32.9892 37.5881 32.6756 37.3575 32.4154 37.0682L26.4249 30.3758C26.1691 30.0977 25.9685 29.7689 25.8344 29.4085C25.7004 29.0482 25.6358 28.6635 25.6443 28.2767C25.6528 27.8898 25.7343 27.5087 25.8841 27.1552C26.0338 26.8018 26.2487 26.4832 26.5166 26.2178C26.7843 25.9526 27.0995 25.7458 27.4438 25.6097C27.7882 25.4735 28.1549 25.4107 28.5225 25.4249C28.8901 25.4389 29.2514 25.5296 29.5854 25.6919C29.9194 25.854 30.2195 26.0845 30.4682 26.3696L31.6305 27.6688V16.896C31.6305 16.1212 31.9232 15.3781 32.4441 14.8302C32.965 14.2823 33.6715 13.9745 34.4083 13.9745C35.1449 13.9745 35.8513 14.2823 36.3723 14.8302C36.8932 15.3781 37.1858 16.1212 37.1858 16.896V27.7279L38.3483 26.4295C38.5983 26.1501 38.8982 25.9252 39.2308 25.7678C39.5634 25.6104 39.9224 25.5234 40.287 25.5118C40.6516 25.5003 41.0148 25.5644 41.3558 25.7005C41.6969 25.8366 42.009 26.042 42.2746 26.305C42.5403 26.5681 42.7539 26.8837 42.9036 27.2337C43.0533 27.5837 43.1358 27.9612 43.1466 28.3448C43.1574 28.7284 43.0964 29.1105 42.9668 29.4692C42.8373 29.828 42.6417 30.1564 42.3915 30.4356L36.457 37.0642C36.1975 37.354 35.8847 37.5851 35.5375 37.7436C35.1904 37.9021 34.8162 37.9846 34.4378 37.9863ZM28.4473 26.927C28.1789 26.9269 27.9165 27.0096 27.6922 27.1645C27.4679 27.3196 27.2917 27.5403 27.1854 27.7994C27.0791 28.0586 27.0471 28.3447 27.0936 28.6227C27.1401 28.9007 27.2631 29.1583 27.4471 29.3636L33.4376 36.0561C33.7037 36.3338 34.0635 36.4898 34.4385 36.4898C34.8135 36.4898 35.1733 36.3338 35.4395 36.0561L41.3738 29.4267C41.5008 29.2891 41.6005 29.1263 41.667 28.9478C41.7336 28.7693 41.7657 28.5786 41.7617 28.387C41.7575 28.1952 41.7173 28.0064 41.643 27.8312C41.5689 27.656 41.4623 27.4981 41.3295 27.3667C41.1968 27.2354 41.0405 27.133 40.8697 27.0657C40.6991 26.9984 40.5174 26.9674 40.3352 26.9747C40.1531 26.9819 39.9741 27.0273 39.8087 27.1079C39.6434 27.1886 39.4948 27.3031 39.3719 27.4447L35.786 31.4509V16.896C35.786 16.5125 35.6411 16.1448 35.3833 15.8735C35.1254 15.6024 34.7758 15.45 34.4112 15.45C34.0466 15.45 33.6969 15.6024 33.4391 15.8735C33.1813 16.1448 33.0364 16.5125 33.0364 16.896V31.3855L29.4497 27.3777C29.3209 27.2345 29.1656 27.1207 28.9933 27.0432C28.821 26.9658 28.6354 26.9262 28.448 26.927H28.4473Z" fill="#0B213E" stroke="#0B213E" stroke-width="0.3"/>
<path d="M21.7331 24.7223C20.9967 24.7214 20.2907 24.4134 19.77 23.8657C19.2492 23.3179 18.9563 22.5754 18.9555 21.8008V10.9698L17.7938 12.2666C17.5439 12.5462 17.244 12.7714 16.9112 12.929C16.5784 13.0866 16.2195 13.1736 15.8547 13.1852C15.49 13.1968 15.1267 13.1326 14.7855 12.9963C14.4444 12.86 14.1321 12.6543 13.8667 12.391C13.6011 12.1282 13.3873 11.8128 13.2376 11.463C13.088 11.1131 13.0054 10.7356 12.9944 10.3522C12.9835 9.96873 13.0445 9.58675 13.174 9.22811C13.3036 8.86947 13.4989 8.54117 13.7492 8.26201L19.6843 1.63263C19.9439 1.34265 20.2571 1.11158 20.6048 0.953642C20.9525 0.795704 21.3271 0.714233 21.7059 0.714233C22.0846 0.714233 22.4593 0.795704 22.807 0.953642C23.1546 1.11158 23.4677 1.34265 23.7274 1.63263L29.7179 8.32505C29.968 8.60434 30.1634 8.9327 30.2928 9.29139C30.4222 9.65009 30.4832 10.0321 30.4723 10.4156C30.4614 10.799 30.3788 11.1766 30.2292 11.5264C30.0796 11.8764 29.8658 12.1918 29.6004 12.4548C29.3348 12.7179 29.0226 12.9234 28.6816 13.0596C28.3406 13.1957 27.9774 13.2599 27.6128 13.2484C27.2482 13.2369 26.8894 13.1499 26.5568 12.9927C26.224 12.8353 25.9241 12.6105 25.6739 12.3313L24.5123 11.0328V21.8C24.5117 22.575 24.2187 23.318 23.6976 23.8659C23.1765 24.414 22.4699 24.7219 21.7331 24.7223ZM20.3583 7.24991V21.8008C20.3583 21.9907 20.3939 22.1787 20.4631 22.3541C20.5321 22.5296 20.6334 22.6891 20.761 22.8232C20.8887 22.9575 21.0403 23.0641 21.207 23.1368C21.3738 23.2094 21.5525 23.2468 21.7331 23.2468C21.9137 23.2468 22.0925 23.2094 22.2593 23.1368C22.4261 23.0641 22.5776 22.9575 22.7053 22.8232C22.8329 22.6891 22.9342 22.5296 23.0033 22.3541C23.0723 22.1787 23.1079 21.9907 23.1079 21.8008V7.31134L26.6947 11.32C26.8176 11.4616 26.966 11.5762 27.1315 11.657C27.2969 11.7377 27.4759 11.7831 27.6583 11.7903C27.8405 11.7976 28.0223 11.7666 28.193 11.6992C28.3639 11.6319 28.5202 11.5294 28.6529 11.3978C28.7857 11.2663 28.8922 11.1083 28.9663 10.9331C29.0404 10.7578 29.0806 10.5687 29.0847 10.377C29.0886 10.1852 29.0564 9.99444 28.9896 9.81592C28.9228 9.63741 28.8228 9.47467 28.6957 9.33716L22.7053 2.64473C22.4391 2.36692 22.0793 2.21105 21.7043 2.21105C21.3293 2.21105 20.9695 2.36692 20.7034 2.64473L14.7683 9.27417C14.5248 9.55457 14.396 9.92438 14.4097 10.3038C14.4234 10.6832 14.5785 11.0418 14.8412 11.3021C15.1041 11.5622 15.4538 11.7034 15.8146 11.6948C16.1755 11.6862 16.5187 11.5286 16.7702 11.2561L20.3583 7.24991Z" fill="#0B213E" stroke="#0B213E" stroke-width="0.3"/>
</svg>
