<svg width="26" height="37" viewBox="0 0 26 37" fill="none" xmlns="http://www.w3.org/2000/svg">
<path d="M19.0865 8.73824C16.4779 4.52848 14.0389 1.18842 14.0128 1.15184C13.9136 1.01648 13.7828 0.906159 13.6311 0.830049C13.4796 0.753938 13.3115 0.714233 13.141 0.714233C12.9705 0.714233 12.8024 0.753938 12.6508 0.830049C12.4992 0.906159 12.3684 1.01648 12.2692 1.15184C12.2402 1.19118 9.34015 5.1635 6.48041 9.9068C6.17555 10.4155 -0.849666 21.7665 0.63432 25.1224C0.889433 28.2761 2.38578 31.2111 4.80966 33.312C7.23355 35.4128 10.3968 36.5165 13.6362 36.3915C16.8756 36.2666 19.9397 34.9227 22.1861 32.6417C24.4325 30.3606 25.6866 27.3196 25.6859 24.1561C25.6144 22.5948 25.2798 21.0556 24.6956 19.6005C24.0081 17.9978 20.1892 10.5025 19.0865 8.73824ZM13.1406 34.3045C10.3827 34.3015 7.73853 33.2309 5.78833 31.328C3.83813 29.4249 2.7411 26.8446 2.73792 24.1533C2.73792 22.369 3.70626 18.6356 8.31948 10.9801C10.1897 7.87405 12.0775 5.10897 13.1414 3.59459C14.2023 5.10897 16.0867 7.86991 17.9547 10.9698C22.5743 18.6314 23.5426 22.3704 23.5426 24.1533C23.5395 26.8445 22.4426 29.4246 20.4926 31.3277C18.5424 33.2307 15.8985 34.3014 13.1406 34.3045ZM23.8214 17.4442C22.8136 15.2296 21.6829 13.07 20.4347 10.9753C20.5585 13.3276 23.6198 17.0543 23.8227 17.4442H23.8214Z" fill="#0B213E"/>
</svg>
