<svg width="40" height="38" viewBox="0 0 40 38" fill="none" xmlns="http://www.w3.org/2000/svg">
<path d="M25.3976 13.9865H14.6035C14.4245 13.9865 14.2529 14.05 14.1263 14.1631C13.9998 14.2763 13.9287 14.4298 13.9287 14.5898C13.9287 14.7498 13.9998 14.9032 14.1263 15.0163C14.2529 15.1294 14.4245 15.193 14.6035 15.193H25.3968C25.5758 15.193 25.7475 15.1294 25.874 15.0163C26.0005 14.9032 26.0716 14.7498 26.0716 14.5898C26.0716 14.4298 26.0005 14.2763 25.874 14.1631C25.7475 14.05 25.5758 13.9865 25.3968 13.9865H25.3976Z" fill="#0B213E"/>
<mask id="path-2-outside-1" maskUnits="userSpaceOnUse" x="-0.428711" y="-0.285767" width="41" height="38" fill="black">
<rect fill="white" x="-0.428711" y="-0.285767" width="41" height="38"/>
<path d="M36.8383 21.8955V21.8354C36.8366 18.8935 35.7339 16.044 33.7198 13.7773C31.7056 11.5107 28.9061 9.96857 25.8029 9.41626C26.2906 8.49736 26.5188 7.47786 26.4657 6.45404C26.4128 5.43022 26.0804 4.43587 25.5 3.56491C24.9196 2.69395 24.1103 1.97514 23.1486 1.47635C22.187 0.977561 21.1046 0.715265 20.0038 0.714236C18.903 0.713208 17.8201 0.97348 16.8574 1.47047C15.8946 1.96746 15.0838 2.68477 14.5016 3.55463C13.9193 4.42451 13.5847 5.41823 13.5295 6.44196C13.4743 7.46568 13.7003 8.4856 14.1861 9.40541C13.1457 9.5937 12.1327 9.89486 11.1677 10.3027C10.4987 9.57261 9.66824 8.98581 8.73303 8.5825C7.79783 8.17919 6.78003 7.96891 5.7494 7.96608C5.57771 7.96608 5.41305 8.0296 5.29165 8.14264C5.17025 8.25569 5.10204 8.409 5.10204 8.56887V15.3357C4.0653 16.9492 3.42812 18.7579 3.23689 20.6298H1.21865C1.04696 20.6298 0.882301 20.6934 0.760896 20.8063C0.639493 20.9193 0.571289 21.0728 0.571289 21.2325V27.2627C0.571289 27.4226 0.639493 27.5759 0.760896 27.6889C0.882301 27.802 1.04696 27.8655 1.21865 27.8655H4.81527C5.69782 29.3724 6.89754 30.6982 8.34273 31.7637V36.3082C8.34273 36.4681 8.41094 36.6214 8.53234 36.7344C8.65374 36.8475 8.8184 36.911 8.99009 36.911H14.1713C14.343 36.911 14.5077 36.8475 14.629 36.7344C14.7505 36.6214 14.8186 36.4681 14.8186 36.3082V34.3703C15.4622 34.4559 16.1114 34.499 16.7615 34.4991H23.2375C23.8876 34.499 24.5368 34.4559 25.1804 34.3703V36.3082C25.1804 36.4681 25.2486 36.6214 25.37 36.7344C25.4913 36.8475 25.656 36.911 25.8277 36.911H31.0089C31.1806 36.911 31.3453 36.8475 31.4667 36.7344C31.588 36.6214 31.6563 36.4681 31.6563 36.3082V31.7644C33.0897 30.7212 34.2813 29.4185 35.1592 27.9347C36.0372 26.451 36.5832 24.817 36.7645 23.1314C37.1594 23.2451 37.505 23.4733 37.751 23.7825C37.9972 24.0917 38.131 24.4659 38.133 24.8508C38.133 25.0107 38.2013 25.1641 38.3227 25.2772C38.4442 25.3904 38.609 25.4539 38.7807 25.4539C38.9525 25.4539 39.1173 25.3904 39.2388 25.2772C39.3603 25.1641 39.4285 25.0107 39.4285 24.8508C39.4278 24.1559 39.1699 23.4825 38.698 22.9441C38.2261 22.4057 37.5693 22.0353 36.8383 21.8955ZM16.9434 2.8543C17.9382 2.17711 19.1597 1.8523 20.3885 1.93819C21.6173 2.02407 22.7729 2.51502 23.648 3.32288C24.5231 4.13075 25.0604 5.20263 25.1631 6.34607C25.2658 7.48951 24.9276 8.62963 24.2089 9.56171C24.1094 9.69052 24.0038 9.81427 23.8926 9.93222C23.86 9.96623 23.8281 9.99951 23.794 10.0328C23.6905 10.137 23.5817 10.2369 23.4698 10.3346L23.3735 10.4163C23.0758 10.6554 22.7498 10.8622 22.4021 11.0329L22.3485 11.0568C22.193 11.1291 22.0376 11.195 21.8767 11.2536C21.8362 11.2688 21.799 11.2818 21.754 11.2956C21.6125 11.3433 21.4687 11.3846 21.3241 11.42C21.2744 11.4323 21.2247 11.4454 21.1742 11.4562C21.0304 11.4873 20.8842 11.5119 20.7366 11.5286C20.6877 11.5351 20.6388 11.5445 20.5897 11.5488C20.1983 11.5939 19.8023 11.5939 19.4109 11.5488C19.3603 11.543 19.3113 11.5344 19.2616 11.5278C19.1147 11.5076 18.9686 11.4844 18.8248 11.4555C18.7736 11.4439 18.7238 11.4316 18.6733 11.4186C18.5288 11.3831 18.3865 11.3419 18.2466 11.2941C18.2039 11.2804 18.1611 11.2666 18.1169 11.2507C17.9581 11.1931 17.8024 11.1282 17.6506 11.056C17.6304 11.0473 17.6102 11.0387 17.5899 11.0285C17.4113 10.9415 17.2382 10.8449 17.0717 10.7391H17.0678C16.9133 10.6395 16.7648 10.532 16.6232 10.4171C16.5851 10.3867 16.5455 10.357 16.5121 10.3237C16.4054 10.2335 16.3017 10.1389 16.2013 10.04C16.1639 10.0024 16.1235 9.96406 16.0893 9.92498C15.9859 9.81427 15.8865 9.69776 15.7933 9.57691C14.9888 8.54328 14.6581 7.2545 14.8737 5.99389C15.0894 4.73328 15.8338 3.604 16.9434 2.8543ZM35.4068 23.5121C34.9292 26.5023 33.2 29.1949 30.5971 31.0017C30.5012 31.0707 30.4284 31.1634 30.3871 31.2694C30.3459 31.3753 30.3377 31.4901 30.3639 31.6002V35.7054H26.4782V32.0872C26.4782 31.9272 26.41 31.7738 26.2885 31.6607C26.167 31.5476 26.0022 31.484 25.8304 31.484C25.6586 31.484 25.4938 31.5476 25.3724 31.6607C25.2509 31.7738 25.1826 31.9272 25.1826 32.0872V33.1365C24.5405 33.236 23.8909 33.2886 23.2398 33.2934H16.7615C16.1105 33.2886 15.4609 33.236 14.8186 33.1365V32.0872C14.8186 31.9272 14.7504 31.7738 14.6289 31.6607C14.5074 31.5476 14.3427 31.484 14.171 31.484C13.9991 31.484 13.8344 31.5476 13.7129 31.6607C13.5914 31.7738 13.5232 31.9272 13.5232 32.0872V35.7054H9.63745V31.645C9.67249 31.5284 9.66898 31.4046 9.62741 31.2899C9.58582 31.1751 9.50808 31.0747 9.40431 31.0017C7.88468 29.9404 6.64704 28.5683 5.7867 26.9913C5.73274 26.8916 5.6501 26.8079 5.54802 26.7493C5.44593 26.6908 5.32839 26.6598 5.20851 26.6599H1.86679V21.8354H3.84229C4.00872 21.8355 4.16885 21.776 4.2894 21.6692C4.40995 21.5623 4.48166 21.4164 4.48965 21.2615C4.59156 19.335 5.21526 17.4636 6.30273 15.8219C6.36592 15.7262 6.39928 15.6159 6.39909 15.5035V9.20785C7.20227 9.29442 7.97755 9.53473 8.67622 9.91369C9.37487 10.2926 9.98181 10.802 10.4589 11.4099C10.549 11.5251 10.68 11.6068 10.8287 11.6406C10.9773 11.6744 11.1341 11.658 11.271 11.5944C12.4217 11.0564 13.6561 10.6901 14.929 10.509C14.9384 10.5198 14.9493 10.5292 14.9585 10.5401C15.2482 10.8748 15.5751 11.1799 15.9338 11.4504C15.9766 11.4823 16.0217 11.5105 16.0637 11.5423C16.2027 11.6415 16.3442 11.7363 16.4919 11.8253C16.5478 11.8593 16.6046 11.8897 16.6613 11.9215C16.8027 12.0011 16.9473 12.0763 17.0957 12.1458C17.1555 12.1741 17.2146 12.2008 17.276 12.2269C17.4273 12.292 17.5827 12.3523 17.7423 12.4078C17.8029 12.4288 17.8635 12.4505 17.9249 12.4679C18.0865 12.5192 18.249 12.5627 18.4168 12.6017C18.4775 12.6162 18.5373 12.6321 18.5987 12.6451C18.772 12.6806 18.9477 12.7052 19.1256 12.7305C19.1816 12.7378 19.2367 12.7486 19.2943 12.7544C19.7637 12.8042 20.2376 12.8042 20.7071 12.7544C20.7631 12.7486 20.8175 12.7378 20.8719 12.7305C21.0513 12.7082 21.2278 12.682 21.4018 12.6451C21.4617 12.6329 21.52 12.617 21.5798 12.6024C21.7477 12.5634 21.9133 12.5192 22.0757 12.4679C22.1354 12.449 22.1937 12.428 22.2536 12.4078C22.4121 12.3533 22.5676 12.293 22.7199 12.2269C22.779 12.2016 22.8373 12.1755 22.8956 12.1488C23.0455 12.0763 23.1909 12.004 23.3338 11.9222C23.3898 11.8911 23.4449 11.8622 23.5001 11.8282C23.647 11.7399 23.7901 11.6472 23.9284 11.5445C23.9719 11.5134 24.0169 11.4844 24.0582 11.4526C24.4184 11.1819 24.7466 10.8763 25.0374 10.5408C25.0458 10.5314 25.0552 10.5227 25.0638 10.5133C28.2863 10.9602 31.1863 12.5807 33.126 15.0184C35.0656 17.456 35.886 20.5112 35.4068 23.5121Z"/>
</mask>
<path d="M36.8383 21.8955V21.8354C36.8366 18.8935 35.7339 16.044 33.7198 13.7773C31.7056 11.5107 28.9061 9.96857 25.8029 9.41626C26.2906 8.49736 26.5188 7.47786 26.4657 6.45404C26.4128 5.43022 26.0804 4.43587 25.5 3.56491C24.9196 2.69395 24.1103 1.97514 23.1486 1.47635C22.187 0.977561 21.1046 0.715265 20.0038 0.714236C18.903 0.713208 17.8201 0.97348 16.8574 1.47047C15.8946 1.96746 15.0838 2.68477 14.5016 3.55463C13.9193 4.42451 13.5847 5.41823 13.5295 6.44196C13.4743 7.46568 13.7003 8.4856 14.1861 9.40541C13.1457 9.5937 12.1327 9.89486 11.1677 10.3027C10.4987 9.57261 9.66824 8.98581 8.73303 8.5825C7.79783 8.17919 6.78003 7.96891 5.7494 7.96608C5.57771 7.96608 5.41305 8.0296 5.29165 8.14264C5.17025 8.25569 5.10204 8.409 5.10204 8.56887V15.3357C4.0653 16.9492 3.42812 18.7579 3.23689 20.6298H1.21865C1.04696 20.6298 0.882301 20.6934 0.760896 20.8063C0.639493 20.9193 0.571289 21.0728 0.571289 21.2325V27.2627C0.571289 27.4226 0.639493 27.5759 0.760896 27.6889C0.882301 27.802 1.04696 27.8655 1.21865 27.8655H4.81527C5.69782 29.3724 6.89754 30.6982 8.34273 31.7637V36.3082C8.34273 36.4681 8.41094 36.6214 8.53234 36.7344C8.65374 36.8475 8.8184 36.911 8.99009 36.911H14.1713C14.343 36.911 14.5077 36.8475 14.629 36.7344C14.7505 36.6214 14.8186 36.4681 14.8186 36.3082V34.3703C15.4622 34.4559 16.1114 34.499 16.7615 34.4991H23.2375C23.8876 34.499 24.5368 34.4559 25.1804 34.3703V36.3082C25.1804 36.4681 25.2486 36.6214 25.37 36.7344C25.4913 36.8475 25.656 36.911 25.8277 36.911H31.0089C31.1806 36.911 31.3453 36.8475 31.4667 36.7344C31.588 36.6214 31.6563 36.4681 31.6563 36.3082V31.7644C33.0897 30.7212 34.2813 29.4185 35.1592 27.9347C36.0372 26.451 36.5832 24.817 36.7645 23.1314C37.1594 23.2451 37.505 23.4733 37.751 23.7825C37.9972 24.0917 38.131 24.4659 38.133 24.8508C38.133 25.0107 38.2013 25.1641 38.3227 25.2772C38.4442 25.3904 38.609 25.4539 38.7807 25.4539C38.9525 25.4539 39.1173 25.3904 39.2388 25.2772C39.3603 25.1641 39.4285 25.0107 39.4285 24.8508C39.4278 24.1559 39.1699 23.4825 38.698 22.9441C38.2261 22.4057 37.5693 22.0353 36.8383 21.8955ZM16.9434 2.8543C17.9382 2.17711 19.1597 1.8523 20.3885 1.93819C21.6173 2.02407 22.7729 2.51502 23.648 3.32288C24.5231 4.13075 25.0604 5.20263 25.1631 6.34607C25.2658 7.48951 24.9276 8.62963 24.2089 9.56171C24.1094 9.69052 24.0038 9.81427 23.8926 9.93222C23.86 9.96623 23.8281 9.99951 23.794 10.0328C23.6905 10.137 23.5817 10.2369 23.4698 10.3346L23.3735 10.4163C23.0758 10.6554 22.7498 10.8622 22.4021 11.0329L22.3485 11.0568C22.193 11.1291 22.0376 11.195 21.8767 11.2536C21.8362 11.2688 21.799 11.2818 21.754 11.2956C21.6125 11.3433 21.4687 11.3846 21.3241 11.42C21.2744 11.4323 21.2247 11.4454 21.1742 11.4562C21.0304 11.4873 20.8842 11.5119 20.7366 11.5286C20.6877 11.5351 20.6388 11.5445 20.5897 11.5488C20.1983 11.5939 19.8023 11.5939 19.4109 11.5488C19.3603 11.543 19.3113 11.5344 19.2616 11.5278C19.1147 11.5076 18.9686 11.4844 18.8248 11.4555C18.7736 11.4439 18.7238 11.4316 18.6733 11.4186C18.5288 11.3831 18.3865 11.3419 18.2466 11.2941C18.2039 11.2804 18.1611 11.2666 18.1169 11.2507C17.9581 11.1931 17.8024 11.1282 17.6506 11.056C17.6304 11.0473 17.6102 11.0387 17.5899 11.0285C17.4113 10.9415 17.2382 10.8449 17.0717 10.7391H17.0678C16.9133 10.6395 16.7648 10.532 16.6232 10.4171C16.5851 10.3867 16.5455 10.357 16.5121 10.3237C16.4054 10.2335 16.3017 10.1389 16.2013 10.04C16.1639 10.0024 16.1235 9.96406 16.0893 9.92498C15.9859 9.81427 15.8865 9.69776 15.7933 9.57691C14.9888 8.54328 14.6581 7.2545 14.8737 5.99389C15.0894 4.73328 15.8338 3.604 16.9434 2.8543ZM35.4068 23.5121C34.9292 26.5023 33.2 29.1949 30.5971 31.0017C30.5012 31.0707 30.4284 31.1634 30.3871 31.2694C30.3459 31.3753 30.3377 31.4901 30.3639 31.6002V35.7054H26.4782V32.0872C26.4782 31.9272 26.41 31.7738 26.2885 31.6607C26.167 31.5476 26.0022 31.484 25.8304 31.484C25.6586 31.484 25.4938 31.5476 25.3724 31.6607C25.2509 31.7738 25.1826 31.9272 25.1826 32.0872V33.1365C24.5405 33.236 23.8909 33.2886 23.2398 33.2934H16.7615C16.1105 33.2886 15.4609 33.236 14.8186 33.1365V32.0872C14.8186 31.9272 14.7504 31.7738 14.6289 31.6607C14.5074 31.5476 14.3427 31.484 14.171 31.484C13.9991 31.484 13.8344 31.5476 13.7129 31.6607C13.5914 31.7738 13.5232 31.9272 13.5232 32.0872V35.7054H9.63745V31.645C9.67249 31.5284 9.66898 31.4046 9.62741 31.2899C9.58582 31.1751 9.50808 31.0747 9.40431 31.0017C7.88468 29.9404 6.64704 28.5683 5.7867 26.9913C5.73274 26.8916 5.6501 26.8079 5.54802 26.7493C5.44593 26.6908 5.32839 26.6598 5.20851 26.6599H1.86679V21.8354H3.84229C4.00872 21.8355 4.16885 21.776 4.2894 21.6692C4.40995 21.5623 4.48166 21.4164 4.48965 21.2615C4.59156 19.335 5.21526 17.4636 6.30273 15.8219C6.36592 15.7262 6.39928 15.6159 6.39909 15.5035V9.20785C7.20227 9.29442 7.97755 9.53473 8.67622 9.91369C9.37487 10.2926 9.98181 10.802 10.4589 11.4099C10.549 11.5251 10.68 11.6068 10.8287 11.6406C10.9773 11.6744 11.1341 11.658 11.271 11.5944C12.4217 11.0564 13.6561 10.6901 14.929 10.509C14.9384 10.5198 14.9493 10.5292 14.9585 10.5401C15.2482 10.8748 15.5751 11.1799 15.9338 11.4504C15.9766 11.4823 16.0217 11.5105 16.0637 11.5423C16.2027 11.6415 16.3442 11.7363 16.4919 11.8253C16.5478 11.8593 16.6046 11.8897 16.6613 11.9215C16.8027 12.0011 16.9473 12.0763 17.0957 12.1458C17.1555 12.1741 17.2146 12.2008 17.276 12.2269C17.4273 12.292 17.5827 12.3523 17.7423 12.4078C17.8029 12.4288 17.8635 12.4505 17.9249 12.4679C18.0865 12.5192 18.249 12.5627 18.4168 12.6017C18.4775 12.6162 18.5373 12.6321 18.5987 12.6451C18.772 12.6806 18.9477 12.7052 19.1256 12.7305C19.1816 12.7378 19.2367 12.7486 19.2943 12.7544C19.7637 12.8042 20.2376 12.8042 20.7071 12.7544C20.7631 12.7486 20.8175 12.7378 20.8719 12.7305C21.0513 12.7082 21.2278 12.682 21.4018 12.6451C21.4617 12.6329 21.52 12.617 21.5798 12.6024C21.7477 12.5634 21.9133 12.5192 22.0757 12.4679C22.1354 12.449 22.1937 12.428 22.2536 12.4078C22.4121 12.3533 22.5676 12.293 22.7199 12.2269C22.779 12.2016 22.8373 12.1755 22.8956 12.1488C23.0455 12.0763 23.1909 12.004 23.3338 11.9222C23.3898 11.8911 23.4449 11.8622 23.5001 11.8282C23.647 11.7399 23.7901 11.6472 23.9284 11.5445C23.9719 11.5134 24.0169 11.4844 24.0582 11.4526C24.4184 11.1819 24.7466 10.8763 25.0374 10.5408C25.0458 10.5314 25.0552 10.5227 25.0638 10.5133C28.2863 10.9602 31.1863 12.5807 33.126 15.0184C35.0656 17.456 35.886 20.5112 35.4068 23.5121Z" fill="#0B213E"/>
<path d="M36.8383 21.8955V21.8354C36.8366 18.8935 35.7339 16.044 33.7198 13.7773C31.7056 11.5107 28.9061 9.96857 25.8029 9.41626C26.2906 8.49736 26.5188 7.47786 26.4657 6.45404C26.4128 5.43022 26.0804 4.43587 25.5 3.56491C24.9196 2.69395 24.1103 1.97514 23.1486 1.47635C22.187 0.977561 21.1046 0.715265 20.0038 0.714236C18.903 0.713208 17.8201 0.97348 16.8574 1.47047C15.8946 1.96746 15.0838 2.68477 14.5016 3.55463C13.9193 4.42451 13.5847 5.41823 13.5295 6.44196C13.4743 7.46568 13.7003 8.4856 14.1861 9.40541C13.1457 9.5937 12.1327 9.89486 11.1677 10.3027C10.4987 9.57261 9.66824 8.98581 8.73303 8.5825C7.79783 8.17919 6.78003 7.96891 5.7494 7.96608C5.57771 7.96608 5.41305 8.0296 5.29165 8.14264C5.17025 8.25569 5.10204 8.409 5.10204 8.56887V15.3357C4.0653 16.9492 3.42812 18.7579 3.23689 20.6298H1.21865C1.04696 20.6298 0.882301 20.6934 0.760896 20.8063C0.639493 20.9193 0.571289 21.0728 0.571289 21.2325V27.2627C0.571289 27.4226 0.639493 27.5759 0.760896 27.6889C0.882301 27.802 1.04696 27.8655 1.21865 27.8655H4.81527C5.69782 29.3724 6.89754 30.6982 8.34273 31.7637V36.3082C8.34273 36.4681 8.41094 36.6214 8.53234 36.7344C8.65374 36.8475 8.8184 36.911 8.99009 36.911H14.1713C14.343 36.911 14.5077 36.8475 14.629 36.7344C14.7505 36.6214 14.8186 36.4681 14.8186 36.3082V34.3703C15.4622 34.4559 16.1114 34.499 16.7615 34.4991H23.2375C23.8876 34.499 24.5368 34.4559 25.1804 34.3703V36.3082C25.1804 36.4681 25.2486 36.6214 25.37 36.7344C25.4913 36.8475 25.656 36.911 25.8277 36.911H31.0089C31.1806 36.911 31.3453 36.8475 31.4667 36.7344C31.588 36.6214 31.6563 36.4681 31.6563 36.3082V31.7644C33.0897 30.7212 34.2813 29.4185 35.1592 27.9347C36.0372 26.451 36.5832 24.817 36.7645 23.1314C37.1594 23.2451 37.505 23.4733 37.751 23.7825C37.9972 24.0917 38.131 24.4659 38.133 24.8508C38.133 25.0107 38.2013 25.1641 38.3227 25.2772C38.4442 25.3904 38.609 25.4539 38.7807 25.4539C38.9525 25.4539 39.1173 25.3904 39.2388 25.2772C39.3603 25.1641 39.4285 25.0107 39.4285 24.8508C39.4278 24.1559 39.1699 23.4825 38.698 22.9441C38.2261 22.4057 37.5693 22.0353 36.8383 21.8955ZM16.9434 2.8543C17.9382 2.17711 19.1597 1.8523 20.3885 1.93819C21.6173 2.02407 22.7729 2.51502 23.648 3.32288C24.5231 4.13075 25.0604 5.20263 25.1631 6.34607C25.2658 7.48951 24.9276 8.62963 24.2089 9.56171C24.1094 9.69052 24.0038 9.81427 23.8926 9.93222C23.86 9.96623 23.8281 9.99951 23.794 10.0328C23.6905 10.137 23.5817 10.2369 23.4698 10.3346L23.3735 10.4163C23.0758 10.6554 22.7498 10.8622 22.4021 11.0329L22.3485 11.0568C22.193 11.1291 22.0376 11.195 21.8767 11.2536C21.8362 11.2688 21.799 11.2818 21.754 11.2956C21.6125 11.3433 21.4687 11.3846 21.3241 11.42C21.2744 11.4323 21.2247 11.4454 21.1742 11.4562C21.0304 11.4873 20.8842 11.5119 20.7366 11.5286C20.6877 11.5351 20.6388 11.5445 20.5897 11.5488C20.1983 11.5939 19.8023 11.5939 19.4109 11.5488C19.3603 11.543 19.3113 11.5344 19.2616 11.5278C19.1147 11.5076 18.9686 11.4844 18.8248 11.4555C18.7736 11.4439 18.7238 11.4316 18.6733 11.4186C18.5288 11.3831 18.3865 11.3419 18.2466 11.2941C18.2039 11.2804 18.1611 11.2666 18.1169 11.2507C17.9581 11.1931 17.8024 11.1282 17.6506 11.056C17.6304 11.0473 17.6102 11.0387 17.5899 11.0285C17.4113 10.9415 17.2382 10.8449 17.0717 10.7391H17.0678C16.9133 10.6395 16.7648 10.532 16.6232 10.4171C16.5851 10.3867 16.5455 10.357 16.5121 10.3237C16.4054 10.2335 16.3017 10.1389 16.2013 10.04C16.1639 10.0024 16.1235 9.96406 16.0893 9.92498C15.9859 9.81427 15.8865 9.69776 15.7933 9.57691C14.9888 8.54328 14.6581 7.2545 14.8737 5.99389C15.0894 4.73328 15.8338 3.604 16.9434 2.8543ZM35.4068 23.5121C34.9292 26.5023 33.2 29.1949 30.5971 31.0017C30.5012 31.0707 30.4284 31.1634 30.3871 31.2694C30.3459 31.3753 30.3377 31.4901 30.3639 31.6002V35.7054H26.4782V32.0872C26.4782 31.9272 26.41 31.7738 26.2885 31.6607C26.167 31.5476 26.0022 31.484 25.8304 31.484C25.6586 31.484 25.4938 31.5476 25.3724 31.6607C25.2509 31.7738 25.1826 31.9272 25.1826 32.0872V33.1365C24.5405 33.236 23.8909 33.2886 23.2398 33.2934H16.7615C16.1105 33.2886 15.4609 33.236 14.8186 33.1365V32.0872C14.8186 31.9272 14.7504 31.7738 14.6289 31.6607C14.5074 31.5476 14.3427 31.484 14.171 31.484C13.9991 31.484 13.8344 31.5476 13.7129 31.6607C13.5914 31.7738 13.5232 31.9272 13.5232 32.0872V35.7054H9.63745V31.645C9.67249 31.5284 9.66898 31.4046 9.62741 31.2899C9.58582 31.1751 9.50808 31.0747 9.40431 31.0017C7.88468 29.9404 6.64704 28.5683 5.7867 26.9913C5.73274 26.8916 5.6501 26.8079 5.54802 26.7493C5.44593 26.6908 5.32839 26.6598 5.20851 26.6599H1.86679V21.8354H3.84229C4.00872 21.8355 4.16885 21.776 4.2894 21.6692C4.40995 21.5623 4.48166 21.4164 4.48965 21.2615C4.59156 19.335 5.21526 17.4636 6.30273 15.8219C6.36592 15.7262 6.39928 15.6159 6.39909 15.5035V9.20785C7.20227 9.29442 7.97755 9.53473 8.67622 9.91369C9.37487 10.2926 9.98181 10.802 10.4589 11.4099C10.549 11.5251 10.68 11.6068 10.8287 11.6406C10.9773 11.6744 11.1341 11.658 11.271 11.5944C12.4217 11.0564 13.6561 10.6901 14.929 10.509C14.9384 10.5198 14.9493 10.5292 14.9585 10.5401C15.2482 10.8748 15.5751 11.1799 15.9338 11.4504C15.9766 11.4823 16.0217 11.5105 16.0637 11.5423C16.2027 11.6415 16.3442 11.7363 16.4919 11.8253C16.5478 11.8593 16.6046 11.8897 16.6613 11.9215C16.8027 12.0011 16.9473 12.0763 17.0957 12.1458C17.1555 12.1741 17.2146 12.2008 17.276 12.2269C17.4273 12.292 17.5827 12.3523 17.7423 12.4078C17.8029 12.4288 17.8635 12.4505 17.9249 12.4679C18.0865 12.5192 18.249 12.5627 18.4168 12.6017C18.4775 12.6162 18.5373 12.6321 18.5987 12.6451C18.772 12.6806 18.9477 12.7052 19.1256 12.7305C19.1816 12.7378 19.2367 12.7486 19.2943 12.7544C19.7637 12.8042 20.2376 12.8042 20.7071 12.7544C20.7631 12.7486 20.8175 12.7378 20.8719 12.7305C21.0513 12.7082 21.2278 12.682 21.4018 12.6451C21.4617 12.6329 21.52 12.617 21.5798 12.6024C21.7477 12.5634 21.9133 12.5192 22.0757 12.4679C22.1354 12.449 22.1937 12.428 22.2536 12.4078C22.4121 12.3533 22.5676 12.293 22.7199 12.2269C22.779 12.2016 22.8373 12.1755 22.8956 12.1488C23.0455 12.0763 23.1909 12.004 23.3338 11.9222C23.3898 11.8911 23.4449 11.8622 23.5001 11.8282C23.647 11.7399 23.7901 11.6472 23.9284 11.5445C23.9719 11.5134 24.0169 11.4844 24.0582 11.4526C24.4184 11.1819 24.7466 10.8763 25.0374 10.5408C25.0458 10.5314 25.0552 10.5227 25.0638 10.5133C28.2863 10.9602 31.1863 12.5807 33.126 15.0184C35.0656 17.456 35.886 20.5112 35.4068 23.5121Z" stroke="#0B213E" stroke-width="0.6" mask="url(#path-2-outside-1)"/>
<path d="M10.8927 17.6061C10.5325 17.6061 10.1803 17.7123 9.88079 17.9111C9.58126 18.1099 9.3478 18.3926 9.20994 18.7234C9.07208 19.0541 9.03601 19.4179 9.10628 19.769C9.17657 20.12 9.35005 20.4425 9.60478 20.6957C9.85951 20.9488 10.1841 21.1212 10.5374 21.191C10.8907 21.2608 11.2569 21.225 11.5898 21.088C11.9226 20.9511 12.2071 20.7191 12.4072 20.4214C12.6073 20.1238 12.7142 19.7739 12.7142 19.4159C12.7142 18.936 12.5223 18.4756 12.1807 18.1362C11.8391 17.7967 11.3758 17.6061 10.8927 17.6061ZM10.8927 20.019C10.7727 20.019 10.6554 19.9835 10.5555 19.9173C10.4557 19.851 10.378 19.7569 10.332 19.6467C10.2861 19.5365 10.2741 19.4153 10.2975 19.2983C10.3209 19.1812 10.3787 19.0738 10.4636 18.9894C10.5485 18.9052 10.6566 18.8477 10.7743 18.8244C10.892 18.8012 11.0141 18.8132 11.125 18.8587C11.2359 18.9044 11.3307 18.9817 11.3973 19.0809C11.464 19.1801 11.4996 19.2966 11.4996 19.4159C11.4996 19.5759 11.4357 19.7293 11.3219 19.8424C11.208 19.9554 11.0537 20.019 10.8927 20.019Z" fill="#0B213E"/>
</svg>
