<svg width="43" height="34" viewBox="0 0 43 34" fill="none" xmlns="http://www.w3.org/2000/svg">
<path d="M2.43476 33.2591H40.4924C40.9998 33.2585 41.4863 33.0561 41.8451 32.6963C42.2039 32.3364 42.4057 31.8485 42.4062 31.3396V3.77741C42.4059 3.4161 42.2626 3.06967 42.008 2.8141C41.7534 2.55853 41.4082 2.41469 41.048 2.41417H31.3673C31.1567 0.9964 30.3649 0 29.3586 0C28.3138 0 27.5202 0.958728 27.3343 2.35468C27.1109 0.966659 26.327 0 25.3356 0C24.2907 0 23.4959 0.958765 23.311 2.35571C23.0876 0.967688 22.3037 0 21.3123 0C20.2674 0 19.4735 0.958728 19.2877 2.35468C19.0643 0.966659 18.2795 0 17.289 0C16.2441 0 15.4495 0.958728 15.2646 2.35468C15.0412 0.966659 14.2574 0 13.2659 0C12.2062 0 11.4073 0.991443 11.2363 2.41417H1.87728C1.51705 2.41469 1.17163 2.55853 0.917005 2.8141C0.662376 3.06967 0.519304 3.4161 0.519043 3.77741V31.3396C0.519567 31.8488 0.721418 32.337 1.08063 32.6969C1.43984 33.0569 1.92702 33.2591 2.43476 33.2591V33.2591ZM40.4924 31.6837H2.43476C2.34419 31.6824 2.25748 31.6457 2.19343 31.5814C2.12938 31.5172 2.09286 31.4304 2.09159 31.3396V11.5345H40.8414V31.3426C40.8396 31.4335 40.8023 31.5201 40.7376 31.5838C40.6729 31.6476 40.586 31.6834 40.4953 31.6837H40.4924ZM29.3369 1.56947C29.5741 1.7909 29.7263 2.08879 29.767 2.4112H28.9139C29.0226 1.83319 29.2639 1.57244 29.3401 1.56947H29.3369ZM25.3139 1.56947C25.551 1.7909 25.703 2.08879 25.7437 2.4112H24.8906C24.9993 1.83319 25.2406 1.57244 25.3167 1.56947H25.3139ZM21.2905 1.56947C21.531 1.7885 21.6842 2.08756 21.7216 2.4112H20.8675C20.9752 1.83319 21.2173 1.57244 21.2934 1.56947H21.2905ZM17.2672 1.56947C17.504 1.79105 17.6559 2.08892 17.6963 2.4112H16.8432C16.951 1.83319 17.1932 1.57244 17.2742 1.56947H17.2672ZM13.243 1.56947C13.4801 1.7909 13.6324 2.08879 13.673 2.4112H12.8209C12.9247 1.83319 13.17 1.57244 13.2461 1.56947H13.243ZM13.6593 3.9866C13.6137 4.28199 13.475 4.55505 13.2637 4.76589C13.1582 4.76213 13.0531 4.77973 12.9546 4.81762C12.856 4.85552 12.766 4.91294 12.6901 4.98646C12.6141 5.05997 12.5539 5.14807 12.5127 5.24551C12.4714 5.34295 12.4502 5.44772 12.4502 5.55358C12.4502 5.65944 12.4714 5.76422 12.5127 5.86166C12.5539 5.95909 12.6141 6.0472 12.6901 6.12071C12.766 6.19423 12.856 6.25165 12.9546 6.28954C13.0531 6.32744 13.1582 6.34504 13.2637 6.34128C14.2522 6.34128 15.0432 5.37264 15.2637 3.9866H17.6835C17.6376 4.28186 17.4989 4.5548 17.288 4.76589C17.1825 4.76213 17.0774 4.77973 16.9788 4.81762C16.8803 4.85552 16.7903 4.91294 16.7143 4.98646C16.6384 5.05997 16.578 5.14807 16.5367 5.24551C16.4955 5.34295 16.4742 5.44772 16.4742 5.55358C16.4742 5.65944 16.4955 5.76422 16.5367 5.86166C16.578 5.95909 16.6384 6.0472 16.7143 6.12071C16.7903 6.19423 16.8803 6.25165 16.9788 6.28954C17.0774 6.32744 17.1825 6.34504 17.288 6.34128C18.2765 6.34128 19.0673 5.37264 19.2867 3.9866H21.7085C21.6661 4.28301 21.5272 4.55703 21.3132 4.76589C21.1098 4.77313 20.9169 4.85931 20.7755 5.00624C20.6341 5.15318 20.5552 5.34938 20.5552 5.55358C20.5552 5.75779 20.6341 5.95405 20.7755 6.10098C20.9169 6.24792 21.1098 6.33404 21.3132 6.34128C22.3017 6.34128 23.0925 5.37264 23.312 3.9866H25.7318C25.6862 4.28197 25.5477 4.55501 25.3365 4.76589C25.1331 4.77313 24.9402 4.85931 24.7988 5.00624C24.6575 5.15318 24.5785 5.34938 24.5785 5.55358C24.5785 5.75779 24.6575 5.95405 24.7988 6.10098C24.9402 6.24792 25.1331 6.33404 25.3365 6.34128C26.325 6.34128 27.1158 5.37264 27.3362 3.9866H29.7552C29.7098 4.28206 29.571 4.55517 29.3596 4.76589C29.1561 4.77313 28.9635 4.85931 28.8221 5.00624C28.6808 5.15318 28.6018 5.34938 28.6018 5.55358C28.6018 5.75779 28.6808 5.95405 28.8221 6.10098C28.9635 6.24792 29.1561 6.33404 29.3596 6.34128C30.3481 6.34128 31.1391 5.37264 31.3595 3.9866H40.4934C40.584 3.98763 40.6706 4.02421 40.7347 4.0885C40.7988 4.1528 40.8353 4.23969 40.8363 4.33062V9.95609H2.08676V4.33062C2.08804 4.23977 2.12455 4.15305 2.1886 4.08881C2.25265 4.02456 2.33912 3.98788 2.4297 3.9866H13.6593Z" fill="#0B213E"/>
<path d="M7.15595 13.3727C6.46502 13.3727 5.78961 13.5782 5.21513 13.9632C4.64064 14.3482 4.19297 14.8954 3.92857 15.5356C3.66416 16.1758 3.59491 16.8803 3.72971 17.56C3.8645 18.2397 4.19708 18.864 4.68564 19.354C5.1742 19.844 5.79676 20.1777 6.47442 20.3129C7.15207 20.4481 7.85437 20.3787 8.4927 20.1135C9.13104 19.8483 9.6768 19.3992 10.0607 18.823C10.4445 18.2468 10.6493 17.5694 10.6493 16.8764C10.6482 15.9475 10.28 15.0569 9.62505 14.4001C8.97014 13.7432 8.08213 13.3737 7.15595 13.3727V13.3727ZM7.15595 18.8048C6.77568 18.8048 6.40397 18.6917 6.0878 18.4798C5.77162 18.2679 5.52524 17.9668 5.37972 17.6144C5.2342 17.262 5.19597 16.8743 5.27015 16.5002C5.34434 16.1262 5.52762 15.7826 5.7965 15.5129C6.06539 15.2432 6.40795 15.0596 6.78091 14.9852C7.15387 14.9108 7.54046 14.9489 7.89178 15.0949C8.2431 15.2408 8.54329 15.488 8.75455 15.8051C8.96582 16.1222 9.07867 16.4951 9.07867 16.8764C9.07814 17.3877 8.87536 17.8779 8.51491 18.2394C8.15445 18.601 7.66571 18.8043 7.15595 18.8048Z" fill="#0B213E"/>
<path d="M14.2407 13.2745C13.7876 13.2743 13.3446 13.4089 12.9678 13.6612C12.5911 13.9135 12.2974 14.2722 12.1239 14.6919C11.9504 15.1117 11.9048 15.5736 11.9931 16.0192C12.0814 16.4649 12.2996 16.8744 12.6198 17.1957C12.9401 17.5171 13.3482 17.7359 13.7925 17.8246C14.2368 17.9133 14.6974 17.8679 15.116 17.6941C15.5345 17.5203 15.8924 17.2258 16.1441 16.848C16.3958 16.4702 16.53 16.0261 16.53 15.5717C16.5294 14.9628 16.2882 14.379 15.859 13.9483C15.4298 13.5176 14.8478 13.2753 14.2407 13.2745ZM14.2407 16.2935C14.0983 16.2935 13.9591 16.2511 13.8408 16.1718C13.7224 16.0925 13.6302 15.9798 13.5758 15.8479C13.5213 15.716 13.507 15.5709 13.5347 15.4309C13.5625 15.2908 13.631 15.1622 13.7317 15.0613C13.8323 14.9604 13.9606 14.8916 14.1002 14.8638C14.2398 14.8359 14.3845 14.8502 14.516 14.9049C14.6475 14.9595 14.7598 15.052 14.8389 15.1707C14.918 15.2894 14.9603 15.4289 14.9603 15.5717C14.9603 15.7631 14.8846 15.9467 14.7496 16.082C14.6147 16.2174 14.4315 16.2935 14.2407 16.2935V16.2935Z" fill="#0B213E"/>
<path d="M19.8099 13.2745C19.3569 13.2745 18.914 13.4092 18.5373 13.6616C18.1607 13.9141 17.8672 14.2728 17.6939 14.6926C17.5205 15.1124 17.4752 15.5742 17.5635 16.0198C17.6519 16.4654 17.87 16.8748 18.1903 17.196C18.5106 17.5173 18.9187 17.7361 19.3629 17.8248C19.8072 17.9134 20.2679 17.8679 20.6864 17.694C21.1049 17.5201 21.4626 17.2257 21.7143 16.848C21.9659 16.4702 22.1002 16.026 22.1002 15.5717C22.0996 14.9626 21.8582 14.3786 21.4288 13.9479C20.9994 13.5172 20.4172 13.2751 19.8099 13.2745ZM19.8099 16.2935C19.6676 16.2935 19.5283 16.2511 19.41 16.1718C19.2917 16.0925 19.1995 15.9798 19.145 15.8479C19.0905 15.716 19.0762 15.5709 19.104 15.4309C19.1318 15.2908 19.2003 15.1622 19.3009 15.0613C19.4016 14.9604 19.5298 14.8916 19.6694 14.8638C19.809 14.8359 19.9538 14.8502 20.0853 14.9049C20.2168 14.9595 20.3291 15.052 20.4082 15.1707C20.4872 15.2894 20.5296 15.4289 20.5296 15.5717C20.5296 15.7631 20.4536 15.9467 20.3186 16.082C20.1837 16.2174 20.0008 16.2935 19.8099 16.2935V16.2935Z" fill="#0B213E"/>
<path d="M25.3763 13.2745C24.9233 13.2745 24.4806 13.4092 24.104 13.6616C23.7273 13.9141 23.4336 14.2728 23.2603 14.6926C23.0869 15.1124 23.0416 15.5742 23.13 16.0198C23.2183 16.4654 23.4366 16.8748 23.7569 17.196C24.0773 17.5173 24.4853 17.7361 24.9296 17.8248C25.3739 17.9134 25.8343 17.8679 26.2528 17.694C26.6713 17.5201 27.029 17.2257 27.2807 16.848C27.5324 16.4702 27.6668 16.026 27.6668 15.5717C27.6663 14.9626 27.4248 14.3786 26.9954 13.9479C26.566 13.5172 25.9836 13.2751 25.3763 13.2745ZM25.3763 16.2935C25.234 16.2935 25.095 16.2511 24.9767 16.1718C24.8583 16.0925 24.7659 15.9798 24.7114 15.8479C24.657 15.716 24.6429 15.5709 24.6706 15.4309C24.6984 15.2908 24.7669 15.1622 24.8676 15.0613C24.9682 14.9604 25.0965 14.8916 25.2361 14.8638C25.3757 14.8359 25.5202 14.8502 25.6517 14.9049C25.7832 14.9595 25.8957 15.052 25.9748 15.1707C26.0539 15.2894 26.096 15.4289 26.096 15.5717C26.096 15.7631 26.0202 15.9467 25.8853 16.082C25.7503 16.2174 25.5672 16.2935 25.3763 16.2935V16.2935Z" fill="#0B213E"/>
<path d="M30.9475 13.2745C30.4945 13.2743 30.0517 13.4089 29.6749 13.6612C29.2982 13.9135 29.0043 14.2722 28.8307 14.6919C28.6572 15.1117 28.6119 15.5736 28.7002 16.0192C28.7884 16.4649 29.0064 16.8744 29.3267 17.1957C29.647 17.5171 30.055 17.7359 30.4993 17.8246C30.9437 17.9133 31.4043 17.8679 31.8228 17.6941C32.2414 17.5203 32.5992 17.2258 32.8509 16.848C33.1026 16.4702 33.2371 16.0261 33.2371 15.5717C33.2365 14.9628 32.9951 14.379 32.5659 13.9483C32.1367 13.5176 31.5546 13.2753 30.9475 13.2745V13.2745ZM30.9475 16.2935C30.8051 16.2937 30.6661 16.2515 30.5476 16.1723C30.4291 16.0931 30.3368 15.9804 30.2821 15.8486C30.2275 15.7167 30.213 15.5716 30.2406 15.4315C30.2683 15.2914 30.3367 15.1627 30.4373 15.0617C30.5379 14.9606 30.6662 14.8918 30.8058 14.8639C30.9455 14.8359 31.0901 14.8502 31.2217 14.9048C31.3532 14.9594 31.4657 15.0519 31.5448 15.1706C31.6239 15.2893 31.6662 15.4289 31.6662 15.5717C31.6662 15.7629 31.5905 15.9464 31.4558 16.0817C31.321 16.2171 31.1382 16.2932 30.9475 16.2935V16.2935Z" fill="#0B213E"/>
<path d="M36.5085 13.2745C36.0554 13.2743 35.6127 13.4089 35.2359 13.6612C34.8591 13.9135 34.5655 14.2722 34.392 14.6919C34.2185 15.1117 34.1729 15.5736 34.2612 16.0192C34.3494 16.4649 34.5674 16.8744 34.8877 17.1957C35.2079 17.5171 35.616 17.7359 36.0603 17.8246C36.5046 17.9133 36.9652 17.8679 37.3838 17.6941C37.8024 17.5203 38.1602 17.2258 38.4119 16.848C38.6636 16.4702 38.798 16.0261 38.798 15.5717C38.7975 14.9628 38.5561 14.379 38.1269 13.9483C37.6977 13.5176 37.1156 13.2753 36.5085 13.2745ZM36.5085 16.2935C36.3661 16.2937 36.2271 16.2515 36.1086 16.1723C35.9901 16.0931 35.8977 15.9804 35.8431 15.8486C35.7885 15.7167 35.7739 15.5716 35.8016 15.4315C35.8293 15.2914 35.8977 15.1627 35.9983 15.0617C36.0989 14.9606 36.2272 14.8918 36.3668 14.8639C36.5064 14.8359 36.6513 14.8502 36.7829 14.9048C36.9144 14.9594 37.0267 15.0519 37.1058 15.1706C37.1849 15.2893 37.2272 15.4289 37.2272 15.5717C37.2272 15.7629 37.1515 15.9464 37.0167 16.0817C36.882 16.2171 36.6992 16.2932 36.5085 16.2935V16.2935Z" fill="#0B213E"/>
<path d="M14.2405 18.7067C13.7877 18.7067 13.3452 18.8413 12.9687 19.0936C12.5922 19.346 12.2988 19.7045 12.1255 20.1241C11.9522 20.5437 11.9068 21.0054 11.9952 21.4508C12.0835 21.8962 12.3015 22.3054 12.6217 22.6265C12.9418 22.9476 13.3497 23.1663 13.7938 23.2549C14.2379 23.3435 14.6983 23.298 15.1166 23.1242C15.5349 22.9504 15.8926 22.6561 16.1442 22.2785C16.3958 21.9009 16.5298 21.457 16.5298 21.0028C16.5291 20.3941 16.2876 19.8105 15.8585 19.3801C15.4293 18.9496 14.8475 18.7075 14.2405 18.7067ZM14.2405 21.7246C14.0984 21.7244 13.9597 21.682 13.8416 21.6026C13.7236 21.5233 13.6316 21.4107 13.5773 21.279C13.5231 21.1472 13.509 21.0024 13.5368 20.8626C13.5646 20.7229 13.6332 20.5945 13.7337 20.4938C13.8343 20.3931 13.9624 20.3246 14.1018 20.2968C14.2411 20.2691 14.3856 20.2835 14.5169 20.338C14.6481 20.3926 14.7601 20.485 14.839 20.6035C14.918 20.722 14.9602 20.8613 14.9602 21.0038C14.9599 21.1951 14.884 21.3784 14.749 21.5136C14.6141 21.6487 14.4312 21.7246 14.2405 21.7246V21.7246Z" fill="#0B213E"/>
<path d="M19.8095 18.7067C19.3567 18.7069 18.9142 18.8417 18.5379 19.0941C18.1615 19.3466 17.8683 19.7052 17.6951 20.1248C17.522 20.5444 17.4766 21.0061 17.5651 21.4514C17.6535 21.8968 17.8718 22.3058 18.192 22.6268C18.5123 22.9479 18.9201 23.1665 19.3642 23.255C19.8083 23.3435 20.2685 23.2979 20.6867 23.1241C21.105 22.9503 21.4626 22.656 21.7141 22.2784C21.9656 21.9009 22.0998 21.4569 22.0998 21.0028C22.099 20.3939 21.8575 19.8102 21.4281 19.3797C20.9987 18.9492 20.4166 18.7072 19.8095 18.7067V18.7067ZM19.8095 21.7246C19.6674 21.7244 19.5286 21.682 19.4105 21.6026C19.2925 21.5233 19.2005 21.4107 19.1463 21.279C19.092 21.1472 19.0779 21.0024 19.1057 20.8626C19.1336 20.7229 19.2021 20.5945 19.3027 20.4938C19.4032 20.3931 19.5313 20.3246 19.6707 20.2968C19.8101 20.2691 19.9543 20.2835 20.0856 20.338C20.2168 20.3926 20.3291 20.485 20.408 20.6035C20.4869 20.722 20.5291 20.8613 20.5291 21.0038C20.5289 21.1951 20.4529 21.3784 20.318 21.5136C20.183 21.6487 20.0002 21.7246 19.8095 21.7246V21.7246Z" fill="#0B213E"/>
<path d="M25.3762 18.7067C24.9234 18.7069 24.481 18.8417 24.1046 19.0941C23.7282 19.3466 23.435 19.7052 23.2619 20.1248C23.0887 20.5444 23.0436 21.0061 23.132 21.4514C23.2205 21.8968 23.4385 22.3058 23.7588 22.6268C24.079 22.9479 24.4869 23.1665 24.9309 23.255C25.375 23.3435 25.8354 23.2979 26.2537 23.1241C26.672 22.9503 27.0293 22.656 27.2808 22.2784C27.5323 21.9009 27.6667 21.4569 27.6667 21.0028C27.6659 20.3939 27.4242 19.8102 26.9948 19.3797C26.5654 18.9492 25.9833 18.7072 25.3762 18.7067V18.7067ZM25.3762 21.7246C25.2341 21.7244 25.0953 21.682 24.9773 21.6026C24.8592 21.5233 24.7672 21.4107 24.713 21.279C24.6588 21.1472 24.6446 21.0024 24.6725 20.8626C24.7003 20.7229 24.7688 20.5945 24.8694 20.4938C24.9699 20.3931 25.098 20.3246 25.2374 20.2968C25.3768 20.2691 25.5213 20.2835 25.6525 20.338C25.7838 20.3926 25.896 20.485 25.9749 20.6035C26.0539 20.722 26.0959 20.8613 26.0959 21.0038C26.0956 21.1951 26.0196 21.3784 25.8847 21.5136C25.7498 21.6487 25.5669 21.7246 25.3762 21.7246V21.7246Z" fill="#0B213E"/>
<path d="M30.9476 18.7067C30.4948 18.7067 30.0522 18.8413 29.6757 19.0936C29.2992 19.346 29.0058 19.7045 28.8325 20.1241C28.6592 20.5437 28.6138 21.0054 28.7022 21.4508C28.7905 21.8962 29.0088 22.3054 29.3289 22.6265C29.6491 22.9476 30.057 23.1663 30.5011 23.2549C30.9452 23.3435 31.4055 23.298 31.8239 23.1242C32.2422 22.9504 32.5997 22.6561 32.8512 22.2785C33.1028 21.9009 33.2371 21.457 33.2371 21.0028C33.2363 20.3941 32.9949 19.8105 32.5657 19.3801C32.1366 18.9496 31.5545 18.7075 30.9476 18.7067V18.7067ZM30.9476 21.7246C30.8054 21.7246 30.6666 21.6823 30.5484 21.6031C30.4302 21.5239 30.338 21.4114 30.2837 21.2797C30.2293 21.148 30.2151 21.003 30.2429 20.8632C30.2706 20.7234 30.3391 20.595 30.4396 20.4942C30.5401 20.3934 30.668 20.3247 30.8074 20.2969C30.9468 20.2691 31.0914 20.2834 31.2227 20.3379C31.354 20.3925 31.4662 20.4849 31.5451 20.6034C31.6241 20.7219 31.6663 20.8612 31.6663 21.0038C31.666 21.1949 31.5903 21.3781 31.4556 21.5132C31.3209 21.6483 31.1381 21.7244 30.9476 21.7246V21.7246Z" fill="#0B213E"/>
<path d="M36.5086 18.7067C36.0558 18.7067 35.6133 18.8413 35.2368 19.0936C34.8603 19.346 34.5668 19.7045 34.3935 20.1241C34.2203 20.5437 34.1749 21.0054 34.2632 21.4508C34.3516 21.8962 34.5698 22.3054 34.89 22.6265C35.2101 22.9476 35.618 23.1663 36.0621 23.2549C36.5062 23.3435 36.9666 23.298 37.3849 23.1242C37.8032 22.9504 38.1607 22.6561 38.4123 22.2785C38.6638 21.9009 38.7982 21.457 38.7982 21.0028C38.7974 20.3941 38.5559 19.8105 38.1268 19.3801C37.6976 18.9496 37.1155 18.7075 36.5086 18.7067V18.7067ZM36.5086 21.7246C36.3665 21.7246 36.2276 21.6823 36.1094 21.6031C35.9913 21.5239 35.8991 21.4114 35.8447 21.2797C35.7903 21.148 35.7762 21.003 35.8039 20.8632C35.8316 20.7234 35.9001 20.595 36.0006 20.4942C36.1011 20.3934 36.2292 20.3247 36.3686 20.2969C36.508 20.2691 36.6524 20.2834 36.7837 20.3379C36.915 20.3925 37.0272 20.4849 37.1062 20.6034C37.1851 20.7219 37.2273 20.8612 37.2273 21.0038C37.227 21.1949 37.1513 21.3781 37.0166 21.5132C36.8819 21.6483 36.6991 21.7244 36.5086 21.7246V21.7246Z" fill="#0B213E"/>
<path d="M14.2405 24.4412C13.7877 24.4412 13.3452 24.5758 12.9687 24.8281C12.5922 25.0805 12.2988 25.4391 12.1255 25.8587C11.9522 26.2783 11.9068 26.7399 11.9952 27.1853C12.0835 27.6307 12.3015 28.0399 12.6217 28.361C12.9418 28.6821 13.3497 28.9008 13.7938 28.9894C14.2379 29.078 14.6983 29.0326 15.1166 28.8588C15.5349 28.685 15.8926 28.3907 16.1442 28.0131C16.3958 27.6355 16.5298 27.1915 16.5298 26.7374C16.5291 26.1286 16.2876 25.5451 15.8585 25.1146C15.4293 24.6842 14.8475 24.4419 14.2405 24.4412ZM14.2405 27.4591C14.0984 27.4589 13.9597 27.4165 13.8416 27.3372C13.7236 27.2579 13.6316 27.1452 13.5773 27.0135C13.5231 26.8818 13.509 26.7369 13.5368 26.5971C13.5646 26.4574 13.6332 26.3291 13.7337 26.2284C13.8343 26.1277 13.9624 26.0591 14.1018 26.0314C14.2411 26.0037 14.3856 26.018 14.5169 26.0725C14.6481 26.1271 14.7601 26.2195 14.839 26.338C14.918 26.4565 14.9602 26.5958 14.9602 26.7384C14.9599 26.9296 14.884 27.1129 14.749 27.2481C14.6141 27.3832 14.4312 27.4591 14.2405 27.4591Z" fill="#0B213E"/>
<path d="M19.8095 24.4412C19.3567 24.4414 18.9142 24.5762 18.5379 24.8286C18.1615 25.0811 17.8683 25.4398 17.6951 25.8593C17.522 26.2789 17.4766 26.7406 17.5651 27.1859C17.6535 27.6313 17.8718 28.0403 18.192 28.3614C18.5123 28.6824 18.9201 28.901 19.3642 28.9895C19.8083 29.078 20.2685 29.0325 20.6867 28.8587C21.105 28.6849 21.4626 28.3905 21.7141 28.0129C21.9656 27.6354 22.0998 27.1915 22.0998 26.7374C22.099 26.1285 21.8575 25.5447 21.4281 25.1142C20.9987 24.6838 20.4166 24.4417 19.8095 24.4412V24.4412ZM19.8095 27.4591C19.6674 27.4589 19.5286 27.4165 19.4105 27.3372C19.2925 27.2579 19.2005 27.1452 19.1463 27.0135C19.092 26.8818 19.0779 26.7369 19.1057 26.5971C19.1336 26.4574 19.2021 26.3291 19.3027 26.2284C19.4032 26.1277 19.5313 26.0591 19.6707 26.0314C19.8101 26.0037 19.9543 26.0179 20.0856 26.0725C20.2168 26.1271 20.3291 26.2195 20.408 26.338C20.4869 26.4565 20.5291 26.5958 20.5291 26.7384C20.5289 26.9296 20.4529 27.1129 20.318 27.2481C20.183 27.3832 20.0002 27.4591 19.8095 27.4591Z" fill="#0B213E"/>
<path d="M25.3762 24.4412C24.9234 24.4414 24.481 24.5762 24.1046 24.8286C23.7282 25.0811 23.435 25.4398 23.2619 25.8593C23.0887 26.2789 23.0436 26.7406 23.132 27.1859C23.2205 27.6313 23.4385 28.0403 23.7588 28.3614C24.079 28.6824 24.4869 28.901 24.9309 28.9895C25.375 29.078 25.8354 29.0325 26.2537 28.8587C26.672 28.6849 27.0293 28.3905 27.2808 28.0129C27.5323 27.6354 27.6667 27.1915 27.6667 26.7374C27.6659 26.1285 27.4242 25.5447 26.9948 25.1142C26.5654 24.6838 25.9833 24.4417 25.3762 24.4412V24.4412ZM25.3762 27.4591C25.2341 27.4589 25.0953 27.4165 24.9773 27.3372C24.8592 27.2579 24.7672 27.1452 24.713 27.0135C24.6588 26.8818 24.6446 26.7369 24.6725 26.5971C24.7003 26.4574 24.7688 26.3291 24.8694 26.2284C24.9699 26.1277 25.098 26.0591 25.2374 26.0314C25.3768 26.0037 25.5213 26.0179 25.6525 26.0725C25.7838 26.1271 25.896 26.2195 25.9749 26.338C26.0539 26.4565 26.0959 26.5958 26.0959 26.7384C26.0956 26.9296 26.0196 27.1129 25.8847 27.2481C25.7498 27.3832 25.5669 27.4591 25.3762 27.4591Z" fill="#0B213E"/>
<path d="M30.9476 24.4412C30.4948 24.4412 30.0522 24.5758 29.6757 24.8281C29.2992 25.0805 29.0058 25.4391 28.8325 25.8587C28.6592 26.2783 28.6138 26.7399 28.7022 27.1853C28.7905 27.6307 29.0088 28.0399 29.3289 28.361C29.6491 28.6821 30.057 28.9008 30.5011 28.9894C30.9452 29.078 31.4055 29.0326 31.8239 28.8588C32.2422 28.685 32.5997 28.3907 32.8512 28.0131C33.1028 27.6355 33.2371 27.1915 33.2371 26.7374C33.2363 26.1286 32.9949 25.5451 32.5657 25.1146C32.1366 24.6842 31.5545 24.4419 30.9476 24.4412V24.4412ZM30.9476 27.4591C30.8054 27.4591 30.6666 27.4169 30.5484 27.3377C30.4302 27.2585 30.338 27.1459 30.2837 27.0142C30.2293 26.8825 30.2151 26.7375 30.2429 26.5977C30.2706 26.4579 30.3391 26.3295 30.4396 26.2287C30.5401 26.1279 30.668 26.0593 30.8074 26.0314C30.9468 26.0036 31.0914 26.0179 31.2227 26.0725C31.354 26.127 31.4662 26.2194 31.5451 26.3379C31.6241 26.4565 31.6663 26.5958 31.6663 26.7384C31.666 26.9294 31.5903 27.1126 31.4556 27.2478C31.3209 27.3829 31.1381 27.4589 30.9476 27.4591V27.4591Z" fill="#0B213E"/>
</svg>
