<svg width="27" height="35" viewBox="0 0 27 35" fill="none" xmlns="http://www.w3.org/2000/svg">
<path d="M2.94752 35C2.16591 34.9996 1.41643 34.6946 0.863756 34.152C0.311077 33.6094 0.000428925 32.8736 6.03815e-08 32.1062V2.89279C-0.000109205 2.36288 0.148077 1.84311 0.428371 1.39026C0.708664 0.937412 1.11027 0.568887 1.5894 0.324882C2.06852 0.0808767 2.60669 -0.0292252 3.14521 0.00662783C3.68372 0.0424809 4.20184 0.2229 4.64302 0.528176L25.7509 15.1361C26.1369 15.403 26.4518 15.757 26.6691 16.1684C26.8865 16.5798 27 17.0365 27 17.4999C27 17.9634 26.8865 18.42 26.6691 18.8314C26.4518 19.2428 26.1369 19.5968 25.7509 19.8637L4.64302 34.4708C4.14717 34.8151 3.55483 35 2.94752 35V35ZM2.94752 1.46972C2.71374 1.47064 2.48363 1.52678 2.27661 1.6334C2.03928 1.75126 1.84028 1.93199 1.70212 2.15512C1.56396 2.37824 1.49209 2.63486 1.49475 2.89596V32.1094C1.49469 32.3701 1.56758 32.6257 1.70548 32.8485C1.84338 33.0712 2.041 33.2524 2.27671 33.3724C2.51241 33.4924 2.77718 33.5464 3.04206 33.5287C3.30695 33.511 3.56174 33.4221 3.77867 33.2718L24.8866 18.6655C25.0763 18.5342 25.231 18.3601 25.3379 18.1578C25.4447 17.9555 25.5005 17.731 25.5005 17.5031C25.5005 17.2752 25.4447 17.0507 25.3379 16.8484C25.231 16.6461 25.0763 16.4719 24.8866 16.3406V16.3406L3.78114 1.72636C3.53807 1.55756 3.24773 1.4668 2.94999 1.46655L2.94752 1.46972Z" fill="#0B213E"/>
</svg>
