<svg width="39" height="40" viewBox="0 0 39 40" fill="none" xmlns="http://www.w3.org/2000/svg">
<path fill-rule="evenodd" clip-rule="evenodd" d="M13.699 14.6022C14.5626 15.1503 15.2534 15.9319 15.6912 16.8566L13.8836 17.7124C13.6076 17.1294 13.1719 16.6365 12.6273 16.2908C12.0826 15.9453 11.451 15.7611 10.8059 15.7596H6.26006C5.35727 15.7607 4.4918 16.12 3.8538 16.7588C3.21579 17.3975 2.85742 18.2634 2.85742 19.1662V23.712L5.12843 24.8475L5.69618 32.7961H11.9414V34.7961H3.83394L3.2147 26.1267L0.857422 24.9481V19.1662C0.85742 17.7333 1.42621 16.3591 2.43878 15.3454C3.45141 14.3316 4.82499 13.7613 6.2577 13.7596L6.26006 13.7596L10.8104 13.7596C11.8334 13.7619 12.8352 14.0542 13.699 14.6022Z" fill="#0B213E"/>
<path fill-rule="evenodd" clip-rule="evenodd" d="M14.1517 8.66034C14.1517 11.9016 11.5241 14.5292 8.2829 14.5292C5.04163 14.5292 2.41406 11.9016 2.41406 8.66034C2.41406 5.41907 5.04163 2.7915 8.2829 2.7915C11.5241 2.7915 14.1517 5.41905 14.1517 8.66034ZM12.1517 8.66034C12.1517 10.797 10.4196 12.5292 8.2829 12.5292C6.1462 12.5292 4.41406 10.797 4.41406 8.66034C4.41406 6.52364 6.1462 4.7915 8.2829 4.7915C10.4196 4.7915 12.1517 6.52364 12.1517 8.66034Z" fill="#0B213E"/>
<path fill-rule="evenodd" clip-rule="evenodd" d="M26.081 14.6005C26.946 14.0523 27.9487 13.7607 28.973 13.7596L28.9751 13.7596L33.521 13.7596C34.9549 13.7596 36.33 14.3293 37.3439 15.3432C38.3578 16.3571 38.9275 17.7323 38.9275 19.1662V24.9481L36.5702 26.1267L35.9509 34.7961H27.8396V32.7961H34.0887L34.6565 24.8475L36.9275 23.712V19.1662C36.9275 18.2628 36.5685 17.3963 35.9297 16.7574C35.2909 16.1186 34.4244 15.7596 33.521 15.7596H28.9751C28.3293 15.7603 27.697 15.9442 27.1515 16.2899C26.6061 16.6355 26.1699 17.1288 25.8936 17.7124L24.0859 16.8566C24.5242 15.931 25.2161 15.1487 26.081 14.6005Z" fill="#0B213E"/>
<path fill-rule="evenodd" clip-rule="evenodd" d="M37.3656 8.66034C37.3656 11.9016 34.738 14.5292 31.4968 14.5292C28.2554 14.5292 25.6279 11.9016 25.6279 8.66034C25.6279 5.41909 28.2554 2.7915 31.4968 2.7915C34.738 2.7915 37.3656 5.41905 37.3656 8.66034ZM35.3656 8.66034C35.3656 10.797 33.6334 12.5292 31.4968 12.5292C29.36 12.5292 27.6279 10.797 27.6279 8.66034C27.6279 6.52364 29.36 4.7915 31.4968 4.7915C33.6334 4.7915 35.3656 6.52364 35.3656 8.66034Z" fill="#0B213E"/>
<path fill-rule="evenodd" clip-rule="evenodd" d="M25.1731 39.3342H14.6048L14.0157 29.9097L11.0771 29.322V20.3055C11.0771 18.5694 11.7669 16.9046 12.9943 15.677C14.2219 14.4494 15.887 13.7596 17.623 13.7596H22.1689C23.905 13.7596 25.57 14.4493 26.7975 15.6769C28.025 16.9045 28.7148 18.5694 28.7148 20.3055V29.3259L25.7742 29.914L25.1731 39.3342ZM15.9159 28.2502L16.4837 37.3342H23.2967L23.876 28.254L26.7148 27.6863V20.3055C26.7148 19.0999 26.2358 17.9437 25.3833 17.0911C24.5308 16.2386 23.3745 15.7596 22.1689 15.7596H17.623C16.4174 15.7596 15.2611 16.2386 14.4086 17.0911C13.5561 17.9437 13.0771 19.0999 13.0771 20.3055V27.6824L15.9159 28.2502Z" fill="#0B213E"/>
<path fill-rule="evenodd" clip-rule="evenodd" d="M26.7258 7.6931C26.7258 11.4685 23.6652 14.5291 19.8898 14.5291C16.1143 14.5291 13.0537 11.4685 13.0537 7.6931C13.0537 3.91765 16.1143 0.857056 19.8898 0.857056C23.6652 0.857056 26.7258 3.91765 26.7258 7.6931ZM24.7258 7.6931C24.7258 10.364 22.5606 12.5291 19.8898 12.5291C17.2189 12.5291 15.0537 10.364 15.0537 7.6931C15.0537 5.02223 17.2189 2.85706 19.8898 2.85706C22.5606 2.85706 24.7258 5.02223 24.7258 7.6931Z" fill="#0B213E"/>
</svg>
