<svg width="18" height="18" viewBox="0 0 18 18" fill="none" xmlns="http://www.w3.org/2000/svg">
<path d="M15.75 2.25H14.25V6H3.75V2.25H2.25C1.83525 2.25 1.5 2.58525 1.5 3V17.25C1.5 17.6647 1.83525 18 2.25 18H15.75C16.1647 18 16.5 17.6647 16.5 17.25V3C16.5 2.58525 16.1647 2.25 15.75 2.25ZM13.5 14.25H4.5V12.75H13.5V14.25ZM13.5 10.5H4.5V9H13.5V10.5Z" fill="white" fill-opacity="0.6"/>
<path d="M10.5 1.5C10.5 0.67125 9.82875 0 9 0C8.17125 0 7.5 0.67125 7.5 1.5H5.25V4.5H12.75V1.5H10.5Z" fill="white" fill-opacity="0.6"/>
</svg>
