<svg width="182" height="56" viewBox="0 0 182 56" fill="none" xmlns="http://www.w3.org/2000/svg">
<path fill-rule="evenodd" clip-rule="evenodd" d="M73.7393 27.2838V53.6416H83.5118V50.0399H77.8707V27.2838H73.7393ZM175 36.6973V32.3179C175 29.1255 172.934 27.0382 169.161 27.0382C165.387 27.0382 163.321 29.1665 163.321 32.3179V48.5665C163.321 51.7179 165.387 53.8462 169.161 53.8462C172.934 53.8462 175 51.7589 175 48.5665V40.5036H169.24V44.1053H170.988V48.5665C170.988 49.5897 170.233 50.1217 169.161 50.1217C168.008 50.1217 167.492 49.5897 167.492 48.5665V32.3179C167.214 30.2306 171.107 30.3125 170.988 32.3179V36.6973H175ZM156.806 35.0192C156.806 37.0656 156.846 39.2758 156.925 41.6905L153.111 27.2838H148.622V53.6416H152.396V45.9061C152.396 43.7779 152.357 41.4449 152.277 38.9893L156.17 53.6825H160.54V27.2838H156.766V35.0192H156.806ZM141.472 53.6006H145.603V27.2838H141.472V53.6006ZM134.639 38.3753C134.639 39.3985 134.122 39.9306 133.129 39.9306H131.262V30.8855H133.129C134.122 30.8855 134.639 31.4175 134.639 32.4407V38.3753ZM138.77 38.3753V32.4407C138.77 29.2483 136.824 27.2838 133.129 27.2838H127.131V53.6416H131.262V43.5732H132.533L135.155 53.6416H139.287L136.466 42.7956C138.016 41.9361 138.77 40.3808 138.77 38.3753ZM120.973 38.3753C120.973 39.3985 120.457 39.9306 119.464 39.9306H117.596V30.8855H119.464C120.457 30.8855 120.973 31.4175 120.973 32.4407V38.3753ZM119.503 27.2838H113.505V53.6416H117.636V43.5732H119.503C123.198 43.5732 125.144 41.6087 125.144 38.4163V32.4407C125.105 29.2483 123.158 27.2838 119.503 27.2838ZM106.632 48.5665C106.871 50.6129 102.977 50.6129 103.216 48.5665V32.3179C102.977 30.2715 106.831 30.2715 106.632 32.3179V48.5665ZM104.924 27.0382C101.15 27.0382 99.0843 29.1255 99.0843 32.3179V48.5665C99.0843 51.7179 101.15 53.8462 104.924 53.8462C108.698 53.8462 110.764 51.7589 110.764 48.5665V32.3179C110.764 29.1255 108.658 27.0382 104.924 27.0382ZM92.4898 48.5665C92.7282 50.6129 88.835 50.6129 89.0734 48.5665V32.3179C88.835 30.2715 92.6884 30.2715 92.4898 32.3179V48.5665ZM90.7816 27.0382C87.0077 27.0382 84.9419 29.1255 84.9419 32.3179V48.5665C84.9419 51.7179 87.0077 53.8462 90.7816 53.8462C94.5555 53.8462 96.6213 51.7589 96.6213 48.5665V32.3179C96.6213 29.1255 94.5158 27.0382 90.7816 27.0382Z" fill="#6D7A8B"/>
<path fill-rule="evenodd" clip-rule="evenodd" d="M43.4285 27.2428H69.9653V27.4065L28.5314 53.4369L49.1093 36.5335L43.4285 27.2428ZM27.9752 2.15381V53.8052L7 36.5335L27.9752 2.15381Z" fill="#6D7A8B"/>
</svg>
