<svg width="168" height="39" viewBox="0 0 168 39" fill="none" xmlns="http://www.w3.org/2000/svg">
<path d="M65.7246 12.6688C66.7553 13.301 67.6274 14.1703 68.1824 15.3557C68.8167 16.5412 69.1337 17.9637 69.1337 19.5443C69.1337 21.1249 68.8167 22.4683 68.1031 23.6539C67.4688 24.8393 66.5175 25.7086 65.3282 26.2617C64.139 26.894 62.7119 27.2101 61.2055 27.2101C60.3333 27.2101 59.5405 27.052 58.7477 26.7359C57.9549 26.4989 57.2413 26.0247 56.6864 25.4714V33.6904H52.0879V12.0366H56.052L56.4485 13.7752C58.1927 12.3527 60.0955 11.6414 62.0776 11.6414C63.4255 11.6414 64.694 11.9575 65.7246 12.6688ZM63.1875 22.4683C63.9804 21.7572 64.3768 20.8087 64.3768 19.6233C64.3768 18.4379 63.9804 17.4896 63.2669 16.6993C62.5533 15.909 61.6019 15.5929 60.5713 15.5929C59.6991 15.5929 58.9062 15.7509 58.272 16.146C57.6377 16.4622 57.1621 17.0154 56.7656 17.7266V21.2829C57.0035 21.9942 57.4791 22.5474 58.0341 22.9426C58.6684 23.3377 59.382 23.5747 60.2541 23.5747C61.4433 23.5747 62.3947 23.1796 63.1875 22.4683Z" fill="#6D7A8B"/>
<path d="M71.8304 15.4331C72.544 14.3266 73.4954 13.3783 74.7639 12.7461C76.0325 12.1138 77.4596 11.7187 79.0452 11.7187C80.6309 11.7187 82.058 12.0348 83.3265 12.7461C84.5157 13.3783 85.4672 14.3266 86.1807 15.5121C86.8942 16.6975 87.2113 17.9619 87.2113 19.4635C87.2113 20.9651 86.8942 22.2295 86.1807 23.4149C85.4672 24.6004 84.5951 25.5488 83.3265 26.1809C82.1373 26.8132 80.6309 27.2083 79.0452 27.2083C77.4596 27.2083 76.0325 26.8922 74.7639 26.26C73.4954 25.6278 72.544 24.7585 71.8304 23.573C71.1962 22.3876 70.7998 21.0441 70.7998 19.4635C70.7998 17.9619 71.1962 16.6185 71.8304 15.4331ZM76.5082 22.3085C77.1424 23.0988 78.0145 23.4149 79.0452 23.4149C80.0758 23.4149 80.948 23.0198 81.5823 22.3085C82.2165 21.5973 82.5336 20.5699 82.5336 19.4635C82.5336 18.2781 82.2165 17.3298 81.5823 16.6185C80.8687 15.8282 80.0758 15.4331 78.9659 15.4331C77.9353 15.4331 77.1424 15.8282 76.4289 16.5395C75.7947 17.3298 75.4775 18.2781 75.4775 19.4635C75.4775 20.5699 75.7947 21.5182 76.5082 22.3085Z" fill="#6D7A8B"/>
<path d="M94.6629 0.813599V26.8141H90.0645V0.813599H94.6629Z" fill="#6D7A8B"/>
<path d="M113.533 12.4307L104.178 33.7684H99.7377L103.226 26.1026L96.5664 12.4307H101.799L105.605 20.9657L109.41 12.4307H113.533Z" fill="#6D7A8B"/>
<path d="M131.134 12.4299V26.8132C131.134 28.1566 130.738 29.4212 129.945 30.5275C129.152 31.6339 128.121 32.5033 126.774 33.1355C125.426 33.7678 123.999 34.0839 122.414 34.0839C121.224 34.0839 120.193 33.9258 119.322 33.6887C118.449 33.3726 117.736 33.0565 117.181 32.7403C116.546 32.3452 115.912 31.871 115.199 31.2388L117.894 28.0776C118.528 28.7099 119.242 29.1841 119.877 29.5002C120.51 29.8163 121.383 30.0533 122.334 30.0533C123.523 30.0533 124.475 29.7372 125.267 29.1841C126.06 28.6309 126.457 27.7615 126.457 26.7342V24.6794C125.981 25.3906 125.347 26.0229 124.396 26.4971C123.444 26.9712 122.334 27.2083 121.065 27.2083C119.797 27.2083 118.528 26.8922 117.418 26.1809C116.309 25.5488 115.436 24.6004 114.723 23.4149C114.089 22.2295 113.692 20.9651 113.692 19.5425C113.692 18.1201 114.009 16.7765 114.723 15.5911C115.436 14.4056 116.309 13.4574 117.497 12.7461C118.608 12.0348 119.797 11.7187 121.065 11.7187C122.255 11.7187 123.285 11.8767 124.237 12.1928C125.188 12.5089 125.902 12.9832 126.378 13.5364L126.853 12.4299H131.134ZM126.457 21.2812V17.7249C126.139 17.0136 125.664 16.4604 124.951 16.0652C124.237 15.6701 123.444 15.4331 122.492 15.4331C121.383 15.4331 120.432 15.8282 119.638 16.5395C118.846 17.2507 118.449 18.1991 118.449 19.3845C118.449 20.4909 118.846 21.5182 119.638 22.3085C120.432 23.0988 121.383 23.4939 122.492 23.4939C124.316 23.4149 125.664 22.7036 126.457 21.2812Z" fill="#6D7A8B"/>
<path d="M134.939 15.4348C135.653 14.2493 136.604 13.38 137.872 12.6688C139.141 12.0366 140.568 11.6414 142.154 11.6414C143.74 11.6414 145.167 11.9575 146.434 12.6688C147.624 13.301 148.575 14.2493 149.289 15.4348C149.924 16.6202 150.32 17.8847 150.32 19.3863C150.32 20.8877 150.002 22.1523 149.289 23.3377C148.655 24.5231 147.704 25.4714 146.434 26.1037C145.246 26.7359 143.74 27.131 142.154 27.131C140.568 27.131 139.141 26.815 137.872 26.1827C136.604 25.5505 135.653 24.6812 134.939 23.4957C134.225 22.3103 133.908 20.9669 133.908 19.3072C133.908 17.9637 134.225 16.6202 134.939 15.4348ZM139.537 22.3103C140.172 23.1006 141.044 23.4167 142.074 23.4167C143.105 23.4167 143.977 23.0216 144.611 22.3103C145.246 21.599 145.563 20.5717 145.563 19.4653C145.563 18.2799 145.246 17.3315 144.611 16.6202C143.977 15.909 143.105 15.5139 142.074 15.5139C141.044 15.5139 140.251 15.909 139.537 16.6202C138.823 17.3315 138.507 18.3589 138.507 19.4653C138.586 20.5717 138.903 21.52 139.537 22.3103Z" fill="#6D7A8B"/>
<path d="M166.573 12.9041C167.525 13.6944 167.921 14.7218 168 15.9862V26.8132H163.322V17.7249C163.243 16.3024 162.53 15.5911 161.181 15.5911C160.152 15.5911 159.279 16.0652 158.644 17.0926C158.011 18.1201 157.693 19.3845 157.693 20.8861V26.8132H153.095V12.4299H157.297L157.614 14.7218C158.169 13.7735 158.883 13.0622 159.834 12.5089C160.785 11.9558 161.895 11.7187 163.165 11.7187C164.512 11.7187 165.702 12.1138 166.573 12.9041Z" fill="#6D7A8B"/>
<path d="M32.4258 12.1946C31.633 11.7204 30.6023 11.7204 29.7302 12.1946L23.5461 15.8299L19.3441 18.2007L13.16 21.8361C12.3672 22.3103 11.3365 22.3103 10.4644 21.8361L5.54884 18.991C4.75601 18.5169 4.20103 17.6476 4.20103 16.6992V11.0882C4.20103 10.1398 4.67672 9.27051 5.54884 8.79632L10.3851 6.03033C11.1779 5.55614 12.2086 5.55614 13.0807 6.03033L17.917 8.79632C18.7098 9.27051 19.2649 10.1398 19.2649 11.0882V14.7235L23.4668 12.2736V8.63827C23.4668 7.68992 22.9911 6.82061 22.119 6.34644L13.16 1.13053C12.3672 0.656359 11.3365 0.656359 10.4644 1.13053L1.34683 6.34644C0.474723 6.82061 -0.000976562 7.68992 -0.000976562 8.63827V19.1491C-0.000976562 20.0974 0.474723 20.9667 1.34683 21.441L10.4644 26.6569C11.2572 27.131 12.2879 27.131 13.16 26.6569L19.3441 23.1006L23.5461 20.6507L29.7302 17.0943C30.523 16.6202 31.5537 16.6202 32.4258 17.0943L37.2621 19.8604C38.0549 20.3346 38.6099 21.2039 38.6099 22.1522V27.7633C38.6099 28.7116 38.1342 29.5809 37.2621 30.0551L32.4258 32.9001C31.633 33.3743 30.6023 33.3743 29.7302 32.9001L24.8939 30.1341C24.1011 29.66 23.5461 28.7906 23.5461 27.8423V24.207L19.3441 26.6569V30.2921C19.3441 31.2406 19.8198 32.1098 20.692 32.584L29.8094 37.8C30.6023 38.2741 31.633 38.2741 32.505 37.8L41.6226 32.584C42.4155 32.1098 42.9705 31.2406 42.9705 30.2921V19.7813C42.9705 18.833 42.4947 17.9637 41.6226 17.4895L32.4258 12.1946Z" fill="#6D7A8B"/>
</svg>
