<svg width="208" height="40" viewBox="0 0 208 40" fill="none" xmlns="http://www.w3.org/2000/svg">
<path d="M24.1902 32.1707H21.7297L18.784 29.4676V28.0814L21.8337 25.1704V20.5613L25.819 17.9621L30.3588 21.393L24.1902 32.1707ZM14.0016 24.8931L14.4522 20.5613L12.962 16.6799H21.7644L20.3089 20.5613L20.7247 24.8931H17.3285H14.0016ZM16.0116 29.4676L13.066 32.2054H10.5708L4.36754 21.393L8.942 17.9968L12.962 20.5613V25.1704L16.0116 28.0814V29.4676ZM10.5361 8.67458H24.1556L25.7843 15.6056H8.942L10.5361 8.67458ZM17.3632 0.0454712L0.0703125 10.0261V29.9874L17.3632 39.9681L34.656 29.9874V10.0261L17.3632 0.0454712Z" fill="#6D7A8B"/>
<path d="M54.063 29.2597C49.4885 29.2597 46.127 25.6902 46.127 21.289C46.127 16.8879 49.5231 13.2144 54.0976 13.2144C57.0086 13.2144 58.8107 14.2887 60.2316 15.8482L58.0483 18.2048C56.974 17.0611 55.8304 16.2987 54.063 16.2987C51.4985 16.2987 49.6271 18.5166 49.6271 21.2197C49.6271 23.9921 51.5331 26.2101 54.2362 26.2101C55.8997 26.2101 57.1126 25.413 58.2216 24.304L60.3355 26.418C58.8107 28.0468 57.0433 29.2597 54.063 29.2597Z" fill="#6D7A8B"/>
<path d="M67.0241 29.2597H63.4893V13.249H67.0241V16.9918C67.9944 14.7046 69.7618 13.1104 72.4649 13.249V16.9918H72.257C69.1727 16.9918 67.0241 19.0018 67.0241 23.0911V29.2597Z" fill="#6D7A8B"/>
<path d="M90.9353 13.1797L83.1379 33.5569H79.5685L81.2665 29.2597L74.5781 13.1797H78.3555L82.8953 25.0664L87.2619 13.1797H90.9353Z" fill="#6D7A8B"/>
<path d="M101.332 16.264C98.9403 16.264 96.861 18.2047 96.861 21.2197C96.861 24.2347 98.975 26.1754 101.332 26.1754C103.757 26.1754 105.733 24.2694 105.733 21.2197C105.733 18.1701 103.723 16.264 101.332 16.264ZM102.129 29.225C99.5988 29.225 98.0046 27.9428 96.9303 26.5219V33.5569H93.3955V13.1797H96.9303V16.0561C98.0739 14.462 99.6681 13.1797 102.129 13.1797C105.767 13.1797 109.302 16.0561 109.302 21.1851C109.302 26.314 105.802 29.225 102.129 29.225Z" fill="#6D7A8B"/>
<path d="M117.031 16.5412V24.096C117.031 25.4476 117.724 26.0021 118.937 26.0021H120.323V29.1557H117.898C115.333 29.1557 113.496 28.0121 113.496 24.6505V16.5412H111.556V13.5263H113.496V9.29834H117.031V13.5263H120.323V16.5412H117.031Z" fill="#6D7A8B"/>
<path d="M131.448 16.2641C128.606 16.2641 126.804 18.482 126.804 21.1851C126.804 23.9228 128.745 26.1754 131.482 26.1754C134.324 26.1754 136.126 23.9575 136.126 21.2544C136.195 18.5166 134.22 16.2641 131.448 16.2641ZM131.448 29.2597C126.769 29.2597 123.304 25.6902 123.304 21.289C123.304 16.8532 126.804 13.2144 131.517 13.2144C136.23 13.2144 139.696 16.7839 139.696 21.2197C139.696 25.5863 136.23 29.2597 131.448 29.2597Z" fill="#6D7A8B"/>
<path d="M173.415 16.2641C170.574 16.2641 168.772 18.482 168.772 21.1851C168.772 23.9228 170.712 26.1754 173.45 26.1754C176.292 26.1754 178.094 23.9575 178.094 21.2544C178.129 18.5166 176.188 16.2641 173.415 16.2641ZM173.415 29.2597C168.737 29.2597 165.271 25.6902 165.271 21.289C165.271 16.8532 168.772 13.2144 173.485 13.2144C178.198 13.2144 181.663 16.7839 181.663 21.2197C181.663 25.5863 178.163 29.2597 173.415 29.2597Z" fill="#6D7A8B"/>
<path d="M202.594 13.1797C205.955 13.1797 208 15.2937 208 19.0711V29.225H204.465V20.1454C204.465 17.6849 203.322 16.4027 201.346 16.4027C199.44 16.4027 198.054 17.7542 198.054 20.2147V29.2597H194.519V20.1454C194.519 17.7542 193.341 16.4027 191.4 16.4027C189.46 16.4027 188.108 17.8582 188.108 20.2494V29.2597H184.573V13.2144H188.108V15.8482C189.113 14.4966 190.43 13.2144 192.786 13.2144C195.004 13.2144 196.529 14.2887 197.361 15.9175C198.643 14.2541 200.272 13.1797 202.594 13.1797Z" fill="#6D7A8B"/>
<path d="M146.176 26.0021V27.8042L146.072 27.9774L144.512 28.8438H144.305L142.78 27.9774L142.676 27.8042V26.0021L142.78 25.8288L144.305 24.9625H144.512L146.072 25.8288L146.176 26.0021Z" fill="#6D7A8B"/>
<path d="M156.883 29.225C152.309 29.1211 149.017 25.4823 149.086 21.0811C149.155 16.6799 152.621 13.0758 157.23 13.1797C160.141 13.2491 161.943 14.358 163.329 15.9521L161.111 18.274C160.072 17.1304 158.928 16.2987 157.161 16.264C154.596 16.2294 152.69 18.378 152.655 21.1157C152.586 23.8882 154.458 26.1407 157.161 26.1754C158.824 26.21 160.072 25.4476 161.181 24.3387L163.26 26.4873C161.7 28.1161 159.898 29.2943 156.883 29.225Z" fill="#6D7A8B"/>
</svg>
