<svg width="1440" height="930" viewBox="0 0 1440 930" fill="none" xmlns="http://www.w3.org/2000/svg">
<mask id="mask0" mask-type="alpha" maskUnits="userSpaceOnUse" x="0" y="0" width="1440" height="930">
<path d="M1440 0H0V930H1440V0Z" fill="#F9FBFF"/>
</mask>
<g mask="url(#mask0)">
<path d="M1005.77 872.638C993.606 847.92 971.595 827.321 936.841 813.839C911.934 804.476 887.026 805.599 863.857 817.209C839.529 829.194 825.627 846.047 814.621 864.024C798.982 890.24 793.769 918.329 787.976 946.044C785.659 956.155 782.763 966.267 779.867 976.379C778.708 976.379 776.971 976.379 775.812 976.379C776.971 967.391 777.55 958.028 780.446 949.04C788.555 920.576 795.506 892.113 805.933 864.024C812.304 846.047 827.944 830.692 849.376 817.958C882.392 798.109 925.256 797.734 958.852 817.209C983.18 831.067 999.978 848.294 1015.04 866.646C1020.25 872.638 1024.89 879.005 1029.52 885.372C1030.68 884.997 1032.42 884.623 1033.57 884.248C1027.2 873.387 1021.41 862.152 1014.46 851.291C998.82 826.947 976.229 805.599 944.95 787.623C896.294 759.908 854.589 769.646 823.889 800.731C808.25 816.46 799.561 835.561 788.555 853.163C776.971 870.765 767.124 888.742 755.539 906.345C752.063 911.962 746.271 916.831 739.899 921.325C718.467 937.43 694.139 938.179 670.391 923.572C629.844 898.48 615.363 867.395 620.576 831.816C622.314 818.708 624.051 805.599 624.631 792.491C625.789 750.92 581.188 711.595 519.209 699.985C496.618 695.866 474.607 698.487 460.126 710.472C442.17 725.453 426.53 741.931 410.891 758.036C398.148 771.518 388.301 786.499 373.82 799.233C363.393 808.97 348.912 817.584 333.852 824.325C303.152 837.433 277.087 835.561 247.545 820.955C212.212 803.352 190.78 779.383 181.512 752.043C171.665 723.206 167.031 693.993 159.501 665.155C158.342 659.538 156.605 653.92 152.55 649.051C150.233 646.055 141.544 642.684 137.49 643.433C118.954 646.429 105.052 643.433 92.309 631.074C99.8391 651.673 108.528 668.9 113.162 686.503C123.009 726.576 128.801 766.65 95.7844 804.101C84.1996 817.584 69.7186 829.943 56.3961 842.677C40.1774 858.406 26.8549 874.885 22.2209 893.611C19.3247 905.221 22.2209 915.708 37.2812 922.449C51.1829 928.816 67.4016 926.943 79.5657 920.576C94.6259 913.086 109.107 904.472 121.85 895.109C133.435 886.87 142.124 876.758 153.129 868.144C196.572 833.688 264.923 841.179 288.092 879.754C303.732 905.221 299.677 931.063 296.201 957.279C295.043 963.646 291.568 970.013 289.251 976.379C288.092 976.379 286.354 976.379 285.196 976.379C287.513 959.152 290.409 942.298 291.568 925.07C293.305 895.484 282.879 869.642 238.857 853.912C224.376 848.669 208.736 847.545 195.993 853.912C178.036 862.901 162.397 873.762 146.178 883.874L146.758 883.499C145.02 885.372 143.861 887.619 142.124 889.491L142.703 889.117C140.965 890.24 139.227 891.364 138.069 892.113L138.648 891.738C133.435 895.484 128.222 899.229 123.588 903.349C110.265 914.584 95.2052 924.696 73.194 928.816C44.232 934.059 22.2209 928.441 15.8493 908.592C11.7946 896.233 14.1116 884.623 22.2209 874.511C35.5435 856.534 51.1829 838.931 67.9809 822.453C92.8882 797.735 113.162 772.642 113.162 742.306C113.162 706.352 104.473 671.897 85.9373 637.816C81.8827 631.074 80.7242 623.584 77.828 616.468L77.2487 616.842C87.0958 608.603 78.4072 600.738 74.3525 593.248C67.4017 580.14 58.7131 567.406 51.1829 554.673C72.6148 570.028 81.3034 589.128 90.5713 608.229C93.4675 614.595 95.7844 620.962 100.418 626.58C109.686 638.939 115.479 640.437 136.91 637.816C155.446 635.568 162.397 637.815 165.293 650.549C169.927 669.275 172.244 688.375 176.878 707.476C182.67 732.943 189.621 758.41 208.736 781.256C218.004 792.117 229.01 802.978 242.332 811.966C275.349 834.063 317.633 834.063 347.754 810.094C369.186 793.24 384.825 773.391 403.361 755.04C418.421 739.684 431.744 723.206 449.7 709.723C476.345 689.873 505.886 687.252 541.22 699.985C583.505 715.341 619.417 735.939 628.685 767.773C634.478 786.874 633.898 808.221 628.685 827.696C619.417 862.901 636.795 891.364 672.128 916.082C697.036 933.684 721.943 932.561 740.479 911.588C756.697 892.862 767.703 872.638 780.446 852.789C793.189 832.939 803.036 811.966 819.834 793.989C851.693 759.534 906.141 755.789 951.901 783.128C977.388 798.484 998.82 816.46 1013.3 837.059C1025.46 853.538 1032.99 871.14 1043.42 887.993C1046.9 893.986 1050.37 900.352 1056.16 905.596C1062.54 911.588 1070.65 914.959 1083.97 912.711C1105.98 908.592 1114.67 912.337 1117.56 927.318C1121.04 943.422 1122.2 959.901 1123.94 976.005C1122.78 976.005 1121.04 976.005 1119.88 976.005C1116.98 965.518 1114.67 955.032 1111.77 944.545C1110.03 938.179 1108.3 931.812 1106.56 925.445C1104.82 919.078 1099.03 915.333 1088.02 917.206C1070.65 919.827 1055.59 916.831 1046.32 907.843C1053.27 930.314 1060.22 953.159 1067.75 976.379C1064.85 976.379 1061.96 976.379 1059.06 976.379C1054.43 940.426 1038.21 906.719 1010.98 875.26L1011.56 875.634C1008.67 874.511 1007.51 873.387 1005.77 872.638Z" fill="white"/>
<path d="M50.6034 44.2051C38.4393 25.1047 21.0621 8.62594 -5.00368 -3.35863C-38.0204 -18.7138 -75.0917 -15.7177 -102.316 4.13173C-128.961 23.6066 -142.284 47.2012 -150.393 72.2939C-158.502 97.3866 -164.874 122.854 -171.246 147.946C-175.3 167.047 -186.885 183.9 -206 198.506C-206 194.761 -206 191.016 -206 187.271C-196.732 175.286 -183.989 163.676 -179.355 151.317C-170.087 125.85 -166.032 100.008 -159.082 74.1665C-152.131 49.0738 -140.546 25.1047 -115.059 4.88076C-77.4087 -25.4552 -21.8016 -26.9532 17.0074 2.63366C41.3355 21.3595 60.4505 43.0816 81.8824 63.3055C79.5654 61.4329 79.5654 58.0623 78.4069 55.4406C65.6636 31.4715 50.6034 7.8769 25.1168 -11.598C10.0566 -23.2081 -8.47913 -33.32 -27.594 -42.683C-50.7637 -54.293 -75.0917 -52.0459 -97.6821 -41.5594C-105.791 -37.8142 -113.322 -33.32 -119.693 -28.0768C-139.387 -13.8451 -149.234 3.7572 -158.502 21.734C-171.246 46.4522 -181.672 72.6685 -206 94.3905C-206 90.6453 -206 86.9001 -206 83.1549C-194.415 65.5526 -181.672 48.3248 -171.246 30.7225C-159.082 9.74949 -150.393 -11.9725 -129.54 -30.6984C-95.9444 -60.2853 -46.1297 -64.7795 -3.84518 -40.0613C43.6525 -12.347 73.1937 22.4831 89.9917 62.1819C92.3087 68.1742 95.2049 73.792 99.2596 79.4098C108.527 91.3943 114.32 93.2669 135.752 90.6453C154.867 88.3982 161.238 91.0198 164.134 103.379C168.768 121.73 171.665 140.456 175.14 158.807C182.67 194.761 195.993 229.591 230.747 259.178C231.906 260.302 231.906 261.8 232.485 263.298L233.064 262.923C202.364 247.943 189.042 225.846 180.932 203.001C171.085 175.286 166.451 146.823 159.501 118.734C158.342 113.116 157.184 107.499 153.129 102.63C150.812 99.6337 142.703 95.1395 139.227 95.8885C120.112 98.8847 105.052 95.1395 91.7294 86.1511C105.052 113.116 114.32 139.707 117.795 167.421C123.008 204.873 116.637 240.078 80.7239 271.163C71.456 279.028 63.3466 287.267 54.6581 295.506C37.8601 311.611 24.5376 328.464 21.0621 347.939C19.3244 358.051 21.6414 368.163 35.5431 374.53C48.8657 380.522 63.9259 379.773 76.0899 374.155C89.9917 367.788 103.893 360.672 115.478 352.433C128.801 342.696 139.227 331.46 151.97 320.974C163.555 311.611 176.878 302.622 197.73 302.248V301.873C180.353 313.109 162.976 324.344 145.599 335.954L146.178 335.58C144.44 337.452 143.282 339.699 141.544 341.572L142.123 341.198C133.435 347.564 124.746 353.557 117.216 360.298C105.631 369.661 92.3087 377.526 74.3522 380.896C44.811 386.514 21.6414 383.144 14.6905 359.923C9.47733 342.321 18.1659 326.591 30.9092 311.611C47.1279 292.885 66.2429 275.282 84.1993 257.306C102.156 239.329 111.424 219.479 112.003 197.757C113.741 161.055 103.893 125.101 84.7786 90.6453C78.9861 80.1588 70.8768 70.4213 63.9259 60.3094V60.6839C62.1882 57.6877 61.0297 54.6916 59.292 52.07L59.8712 52.4445C56.3958 49.8229 52.9203 46.8267 50.6034 44.2051Z" fill="white"/>
<path d="M1644.67 659.162C1605.86 646.803 1584.43 625.83 1575.74 599.614C1570.53 583.884 1572.27 567.031 1572.85 550.927C1573.43 529.579 1581.53 507.857 1568.79 487.259C1551.41 458.046 1516.08 439.695 1473.22 427.71C1451.21 421.718 1427.46 424.34 1411.24 436.699C1394.44 449.432 1380.54 463.664 1367.22 477.896C1352.16 493.626 1339.99 510.853 1324.35 526.583C1309.29 541.189 1290.18 553.174 1262.37 557.668C1238.62 561.413 1218.35 558.043 1201.55 546.807C1207.92 547.931 1214.3 549.054 1220.09 550.927C1246.73 559.166 1271.06 554.672 1289.6 542.313C1308.71 529.205 1324.35 513.849 1339.99 498.869C1350.42 488.757 1356.79 477.147 1367.22 467.035C1378.8 455.425 1391.54 443.815 1406.03 433.703C1426.88 418.722 1454.1 416.475 1481.33 424.34C1533.46 438.946 1590.8 476.023 1583.85 522.463C1582.11 534.448 1581.54 546.807 1579.22 558.792C1571.11 599.24 1594.28 630.699 1644.67 654.294C1644.67 655.417 1644.67 657.29 1644.67 659.162Z" fill="white"/>
<path d="M102.735 563.661C91.1502 550.553 99.2596 538.194 105.631 525.835C110.844 515.723 119.533 506.36 125.905 496.623C130.539 489.507 134.593 481.642 138.648 474.152C143.282 465.163 138.069 457.298 128.801 450.931C118.954 444.19 106.79 444.939 94.6257 447.935C73.1938 453.179 51.1826 458.047 29.7508 463.665C14.1113 467.785 -0.948975 467.41 -16.5885 463.29C-37.4411 458.047 -58.873 454.302 -78.5672 447.561C-102.895 439.321 -113.322 424.715 -114.48 407.113C-115.639 387.638 -116.797 367.789 -119.693 348.314C-120.852 341.572 -126.644 334.831 -131.857 324.719C-142.863 331.835 -150.393 335.955 -156.185 340.823C-167.191 351.31 -176.459 362.171 -187.464 372.657C-192.677 377.526 -199.628 381.646 -206 386.14C-206 383.518 -206 380.522 -206 377.9C-199.049 372.283 -190.94 366.665 -184.568 360.673C-174.142 350.935 -164.874 341.198 -155.027 331.086C-149.234 325.468 -141.125 319.476 -130.699 322.472C-123.748 324.344 -116.797 330.711 -115.059 335.954C-110.425 348.314 -108.688 360.673 -106.95 373.406C-105.791 382.769 -106.371 392.132 -105.791 401.495C-105.212 430.333 -87.2558 445.314 -44.9712 453.553C-31.6487 456.175 -18.9054 459.171 -5.5829 460.669C5.42265 461.792 17.5867 461.792 28.013 459.545C49.4449 455.051 69.7183 448.684 89.9917 443.441C121.271 435.202 144.44 443.441 145.02 465.538C145.02 476.773 138.648 488.383 132.855 499.244C127.063 509.731 117.216 519.468 112.003 529.955C107.948 540.816 105.631 552.426 102.735 563.661Z" fill="white"/>
<path d="M351.94 -88C350.202 -70.3977 350.781 -52.4208 346.727 -35.193C342.672 -18.7142 327.033 -5.60612 308.497 6.00392C287.065 19.8611 265.633 33.7182 246.518 48.6989C200.179 84.6526 232.037 135.212 297.491 146.074C340.355 153.189 378.585 141.205 395.962 114.614C400.017 108.622 404.072 103.004 408.706 97.0117C407.547 140.081 344.41 167.421 280.114 148.321C218.136 129.595 194.966 85.0271 241.884 44.2047C254.628 33.3437 267.95 22.4827 284.169 14.2433C335.142 -12.722 351.94 -46.8031 343.251 -88C346.148 -88 349.044 -88 351.94 -88Z" fill="white"/>
<path d="M-206 734.815C-185.147 717.961 -175.88 698.112 -171.246 676.765C-163.715 640.436 -160.24 602.985 -132.437 569.653C-123.748 559.541 -112.742 549.803 -99.4198 542.313C-69.8786 524.71 -27.0148 524.336 3.68494 541.189C37.2809 559.166 56.975 583.884 75.5107 608.602C77.2484 610.849 76.0899 614.22 76.0899 616.842L76.6692 616.467C72.0352 613.471 67.9806 610.849 63.3466 607.853V608.228C61.6089 605.232 60.4505 602.236 58.7127 599.614L59.292 599.988C56.3958 596.992 53.4996 593.996 50.0241 591.374L50.6034 591.749C38.4393 573.398 21.6414 557.293 -3.26596 545.309C-37.4411 528.83 -76.2502 531.826 -103.474 553.174C-129.54 573.023 -142.863 596.618 -149.814 621.71C-157.344 646.803 -163.136 672.27 -170.087 697.738C-175.3 716.089 -185.727 732.568 -205.421 746.425C-206 742.305 -206 738.56 -206 734.815Z" fill="white"/>
<path d="M376.136 976.38C374.399 946.044 371.502 915.708 388.3 886.495C399.306 868.144 411.47 849.793 442.17 841.553C490.247 828.445 549.329 844.175 564.969 877.132C573.657 895.858 575.974 916.457 578.291 936.306C580.029 949.414 576.553 962.897 575.395 976.38C574.236 976.38 572.499 976.38 571.34 976.38C571.34 959.526 572.499 942.673 570.182 926.194C567.865 910.09 564.389 893.611 556.859 878.256C547.012 856.534 522.105 844.175 487.35 842.302C451.438 840.43 424.792 850.916 408.574 871.515C394.093 890.241 388.3 910.09 384.825 930.688C382.508 946.044 381.929 961.399 380.77 976.38C379.033 976.38 377.295 976.38 376.136 976.38Z" fill="white"/>
<path d="M1544.46 976.38C1529.4 970.762 1514.92 964.77 1499.86 959.901C1464.53 948.291 1448.31 929.191 1443.68 904.098C1440.78 886.87 1435.57 869.268 1417.61 851.291C1412.98 857.658 1408.34 861.403 1406.6 865.897C1400.81 880.878 1396.76 895.859 1390.97 910.839C1383.44 929.565 1374.17 948.291 1365.48 967.017C1364.32 970.013 1363.16 973.384 1362.58 976.38C1359.69 976.38 1356.79 976.38 1353.89 976.38C1359.69 964.396 1367.22 952.785 1371.85 940.801C1381.7 914.959 1389.81 889.117 1399.07 863.276C1401.39 856.534 1401.97 847.92 1415.87 845.299C1430.35 848.669 1434.99 856.16 1437.88 864.774C1444.83 882.376 1451.79 899.978 1457.58 917.581C1462.21 933.685 1475.53 944.546 1496.97 952.036C1512.61 957.654 1528.82 962.523 1545.04 968.141C1551.41 970.388 1556.63 973.384 1562.42 976.006C1556.05 976.38 1550.26 976.38 1544.46 976.38Z" fill="white"/>
<path d="M1644.67 953.908C1583.85 963.646 1506.81 934.808 1491.75 893.611C1485.96 877.132 1486.54 859.53 1483.06 842.302C1479.59 826.572 1476.11 810.842 1469.74 795.862C1466.85 789.12 1458.16 783.128 1449.47 778.259C1437.88 771.144 1419.93 772.267 1408.34 779.008C1403.13 782.005 1397.92 785.375 1392.7 788.371C1394.44 777.885 1404.29 771.143 1419.35 769.271C1437.88 767.024 1456.42 768.896 1466.85 780.506C1474.38 789.12 1481.33 799.232 1483.64 808.97C1489.44 832.19 1494.07 856.159 1497.55 879.754C1504.5 927.317 1580.38 958.402 1638.88 949.039C1641.2 948.665 1642.93 948.665 1645.25 948.665C1644.67 950.163 1644.67 952.036 1644.67 953.908Z" fill="white"/>
<path d="M831.998 -88C827.944 -71.8957 826.206 -55.417 819.255 -40.0617C805.353 -9.3513 760.752 23.6063 698.194 26.2279C659.964 28.1005 620.576 12.3707 610.729 -9.72581C617.1 -5.60612 624.051 -1.11192 630.423 3.00778C661.702 22.4827 702.248 26.6024 739.899 13.4943C786.238 -2.9845 811.725 -28.4517 819.834 -61.7838C821.572 -70.3977 822.73 -79.3861 823.889 -88C826.206 -88 829.102 -88 831.998 -88Z" fill="white"/>
<path d="M1200.97 -1.11192C1203.87 -0.737396 1206.77 -0.737396 1209.08 0.386154C1240.94 11.6217 1268.74 10.8727 1300.6 -13.0965C1317.4 -25.4556 1330.14 -40.4363 1344.05 -54.6679C1353.89 -65.5289 1362 -76.7645 1370.69 -88C1373.59 -88 1376.48 -88 1379.38 -88C1357.37 -58.4131 1338.83 -27.3281 1300.6 -4.10806C1276.28 10.4981 1249.63 16.4904 1217.77 7.12747C1211.4 5.25488 1206.77 1.88423 1200.97 -1.11192Z" fill="white"/>
<path d="M1392.7 787.997C1384.59 820.58 1377.64 853.537 1367.22 885.746C1359.69 909.34 1323.77 925.445 1287.86 926.194C1262.95 926.568 1247.89 917.954 1238.05 905.595C1227.04 892.113 1219.51 877.132 1209.08 863.275C1201.55 852.788 1194.6 841.553 1183.02 832.939C1165.06 819.082 1144.21 822.078 1131.47 838.182C1123.93 847.171 1118.14 856.908 1109.45 865.522C1097.87 877.132 1088.6 877.132 1072.96 867.395C1046.9 850.541 1041.1 819.082 1060.8 792.491C1067.17 783.503 1074.12 774.889 1079.91 765.9C1083.39 760.657 1085.71 755.414 1088.6 750.17C1093.81 740.808 1090.92 732.194 1080.49 725.452C1070.07 718.711 1056.74 719.835 1044 722.831C1030.68 726.201 1016.78 729.197 1004.03 733.317C952.48 748.672 907.879 735.939 865.594 718.336C845.9 710.097 837.79 696.24 837.211 680.51C836.053 661.41 834.894 642.309 831.998 623.209C830.84 616.468 825.626 609.726 820.413 599.24C809.408 606.356 801.298 610.101 795.506 614.97C785.659 623.583 778.129 633.321 769.44 642.309C737.582 673.769 690.663 687.626 642.587 680.136C592.772 672.271 542.378 645.306 537.165 607.105C534.269 583.885 530.793 560.665 525.001 537.444C522.684 527.707 515.733 517.595 506.465 509.73C489.088 495.124 466.498 496.622 448.541 510.854C446.224 512.726 443.907 514.224 441.011 515.722C441.59 504.861 452.017 498.12 466.498 495.498C483.296 492.502 501.831 493.251 511.678 503.738C520.946 513.475 529.056 524.336 531.952 535.572C538.323 558.792 541.799 582.761 545.853 606.356C551.067 637.066 587.559 664.78 633.319 672.645C684.292 681.259 727.156 670.773 757.855 642.309C770.599 630.325 781.604 617.591 794.927 605.981C800.14 601.487 810.566 596.993 818.676 596.244C831.419 595.495 834.894 603.734 836.053 610.101C839.528 629.201 843.583 648.302 844.162 667.028C845.9 706.726 858.643 717.213 917.146 728.823C949.584 735.564 980.863 735.564 1011.56 724.703C1020.25 721.707 1030.1 719.46 1039.37 716.838C1053.85 712.719 1069.49 710.472 1082.81 717.213C1096.71 724.703 1100.19 735.939 1096.13 746.425C1090.34 760.282 1081.65 773.765 1074.12 787.248C1070.07 794.364 1065.43 801.105 1060.8 807.846C1046.32 828.07 1059.06 845.298 1076.44 861.402C1085.71 869.642 1094.97 869.267 1103.66 861.028C1109.45 855.784 1112.93 849.418 1117.56 843.425C1121.62 838.557 1124.51 832.939 1129.73 828.819C1145.95 814.962 1172.59 813.838 1188.23 828.07C1202.71 841.178 1211.98 856.908 1222.99 871.14C1231.67 882.375 1239.2 893.985 1249.05 904.846C1264.69 922.074 1289.02 925.07 1316.24 915.333C1344.63 905.221 1359.11 889.491 1363.74 869.267C1368.95 848.669 1373.01 827.696 1379.38 807.097C1382.28 801.479 1388.07 794.738 1392.7 787.997Z" fill="white"/>
<path d="M441.591 515.723C435.798 541.939 429.427 568.156 423.634 594.746C417.842 619.839 401.623 639.688 362.814 649.8C337.907 656.167 314.158 655.044 298.518 640.812C284.617 628.078 274.77 613.098 264.343 599.241C257.972 590.627 252.759 580.889 246.387 572.275C242.911 567.781 238.278 563.287 233.064 559.542C215.108 547.557 194.255 549.43 181.512 564.036C175.14 571.901 169.927 580.14 163.556 588.005C148.495 604.484 130.539 604.858 116.058 588.754C109.686 581.264 107.369 572.275 102.735 564.036C107.369 569.654 112.003 575.646 117.216 580.889C123.009 586.507 129.96 591.75 138.648 599.241C146.758 592.499 153.129 588.38 157.763 583.136C164.714 575.646 169.348 567.032 176.299 559.542C193.097 541.19 226.114 541.19 242.332 559.542C256.813 576.02 267.819 593.997 281.141 611.225C289.251 620.963 297.36 631.075 308.366 639.689C321.688 650.175 340.224 651.299 359.339 645.681C393.514 635.569 409.153 617.217 414.946 593.997C419.58 573.773 424.214 553.549 430.006 533.325C431.164 526.959 436.957 521.341 441.591 515.723Z" fill="white"/>
<path d="M335 181.278C339.634 187.27 346.006 193.262 348.323 199.629C353.536 212.363 355.853 225.471 361.645 237.83C368.017 252.811 382.498 256.93 404.509 250.938C428.258 244.571 442.159 231.838 450.848 217.232C466.488 188.768 491.974 186.521 527.308 190.641C574.226 195.884 621.145 201.876 667.484 208.243C695.287 211.988 705.134 219.853 707.451 238.204C709.189 250.189 706.872 262.548 708.031 274.533C709.189 284.645 710.348 295.131 714.982 304.869C724.249 325.467 746.261 338.95 778.698 344.942C787.966 346.44 796.075 349.436 805.343 350.934C848.786 358.425 865.584 379.023 870.797 405.614C873.114 416.1 876.589 426.961 880.644 437.073C888.174 454.301 906.131 465.911 932.776 469.656C960 473.402 982.011 464.413 999.968 451.68C1020.24 437.073 1031.83 419.471 1039.94 400.745C1051.52 373.031 1060.79 344.568 1071.79 316.479C1074.69 309.363 1075.27 301.498 1087.43 297.378C1104.81 299.625 1108.29 308.614 1111.76 317.228C1119.29 335.205 1126.24 353.556 1132.03 371.533C1136.67 385.39 1147.67 395.876 1166.21 402.243C1192.28 411.606 1218.92 419.471 1244.99 428.834C1255.99 432.954 1265.26 439.695 1275.11 445.313C1242.67 434.452 1210.23 423.216 1177.22 413.104C1140.72 401.494 1122.19 383.143 1117.55 357.301C1115.24 344.942 1109.44 332.583 1104.23 320.598C1101.91 315.355 1097.28 310.861 1090.91 302.622C1085.7 310.112 1081.64 314.606 1079.9 319.1C1070.64 343.069 1063.68 367.413 1053.26 391.382C1043.41 414.602 1031.83 437.822 1005.76 456.548C984.907 471.529 961.159 479.019 928.721 473.776C893.388 468.158 878.327 452.054 871.376 431.081C867.901 420.22 865.005 408.985 861.529 398.124C853.999 374.903 830.25 361.046 796.654 353.556C790.283 352.058 784.49 350.934 778.119 349.811C725.987 341.571 701.08 309.737 701.08 280.525C701.08 267.791 701.08 255.432 701.08 242.699C700.501 226.969 692.391 218.73 669.801 214.984C639.68 209.741 609.56 206.371 578.86 202.625C560.324 200.378 541.789 198.506 523.253 197.008C491.395 194.011 476.335 198.88 461.854 217.606C450.848 232.212 439.263 246.818 415.514 255.058C384.235 265.919 363.383 261.799 354.694 239.703C345.426 220.228 340.792 200.753 335 181.278Z" fill="white"/>
<path d="M1096 97.1881C1098.3 89.686 1099.83 82.1839 1102.13 74.3067L1101.36 74.6818C1103.66 73.5565 1105.2 72.8063 1107.5 71.681L1106.73 72.0561C1109.03 70.1806 1110.56 67.93 1112.86 66.0545L1112.09 66.4296C1114.39 65.3043 1116.69 64.5541 1118.23 63.4287L1117.46 63.8038C1119.76 62.6785 1121.29 61.9283 1123.59 60.803L1122.82 61.1781C1163.44 51.4254 1201 53.3009 1233.95 68.3051C1269.21 84.0594 1283 103.565 1273.04 126.821C1266.14 142.2 1256.94 157.58 1252.35 173.334C1248.51 185.337 1248.51 197.716 1251.58 209.719C1256.18 226.974 1292.2 240.102 1332.82 241.603C1371.14 243.103 1399.49 235.226 1410.22 217.221C1417.89 205.218 1420.19 192.464 1420.95 180.086C1422.49 159.08 1419.42 138.074 1419.42 117.069C1420.19 87.8105 1433.22 60.4279 1469.24 36.4213C1502.96 14.2902 1568.1 9.03874 1611.02 24.7931C1594.16 23.6678 1577.3 21.7923 1560.44 21.4171C1513.69 20.6669 1473.84 34.1707 1457.74 56.6769C1434.75 87.4354 1427.85 119.319 1430.15 151.578C1431.68 172.584 1437.81 193.59 1424.79 214.22C1403.33 247.98 1323.62 258.483 1269.21 234.101C1247.75 224.348 1234.72 212.72 1238.55 198.091C1244.68 175.96 1251.58 153.829 1261.54 132.073C1273.81 103.565 1246.98 74.6818 1194.87 63.4287C1164.21 56.6769 1141.98 59.3026 1122.82 72.8063C1113.63 79.9333 1105.2 88.9358 1096 97.1881Z" fill="white"/>
</g>
</svg>
