<svg width="39" height="37" viewBox="0 0 39 37" fill="none" xmlns="http://www.w3.org/2000/svg">
<path d="M8.46174 23.9938L5.55127 28.7688H10.9331C9.75389 27.4188 8.89455 25.7875 8.46174 23.9938Z" fill="#66D5BB"/>
<path d="M27.957 28.7626H33.3389L30.4284 23.9875C29.9956 25.7876 29.1363 27.4188 27.957 28.7626Z" fill="#66D5BB"/>
<path d="M19.4451 10.1249C20.386 10.1249 21.2955 10.2374 22.1737 10.4562L19.4451 5.98743L16.7166 10.4562C17.5947 10.2374 18.5042 10.1249 19.4451 10.1249Z" fill="#66D5BB"/>
<path d="M8.15423 21.5189C8.15423 21.4689 8.15423 21.4189 8.15423 21.3752C8.15423 16.9752 10.6883 13.1689 14.3766 11.3189L17.7136 5.84387C9.87291 6.70012 3.76343 13.3251 3.76343 21.3752C3.76343 23.3564 4.13351 25.2564 4.81095 27.0002L8.15423 21.5189Z" fill="#0B213E"/>
<path d="M24.5132 11.3186C28.2015 13.1686 30.7356 16.9749 30.7356 21.3749C30.7356 21.4249 30.7356 21.4749 30.7356 21.5187L34.0789 26.9999C34.7563 25.2562 35.1264 23.3562 35.1264 21.3749C35.1264 13.3249 29.0169 6.69988 21.1699 5.84363L24.5132 11.3186Z" fill="#0B213E"/>
<path d="M26.558 30.1124C24.6135 31.6811 22.1421 32.6249 19.4449 32.6249C16.7477 32.6249 14.2763 31.6811 12.3318 30.1124H6.44189C9.25828 34.2686 14.0317 36.9999 19.4449 36.9999C24.8582 36.9999 29.6316 34.2686 32.448 30.1124H26.558Z" fill="#0B213E"/>
<path d="M17.7199 5.84377L19.4449 3.01251L21.1698 5.84377C21.8724 5.91877 22.5623 6.04377 23.2335 6.21252L19.4449 0L15.6562 6.21252C16.3274 6.04377 17.0174 5.91877 17.7199 5.84377Z" fill="#66D5BB"/>
<path d="M31.0554 31.8751H38.8899L34.6998 25.0063C34.5367 25.6876 34.3297 26.3564 34.0788 27.0001L35.9731 30.1064H32.4479C32.0277 30.7314 31.5635 31.3189 31.0554 31.8751Z" fill="#66D5BB"/>
<path d="M6.44193 30.1126H2.91675L4.81106 27.0001C4.56016 26.3564 4.35316 25.6876 4.19008 25.0063L0 31.8751H7.83444C7.32636 31.3189 6.86219 30.7314 6.44193 30.1126Z" fill="#66D5BB"/>
</svg>
